<?xml version="1.0" encoding="UTF-8"?><svg id="Security_Networking" xmlns="http://www.w3.org/2000/svg" viewBox="0 0 192 192"><defs><style>.cls-1{fill:#fff;}</style></defs><path class="cls-1" d="M162.61,79.84c-3.8-3.8-8.1-6.97-12.79-9.47-.87-12.56-6.14-24.84-15.71-34.41-10.18-10.18-23.71-15.78-38.1-15.78s-27.93,5.6-38.1,15.78c-9.23,9.23-14.75,21.4-15.64,34.37-4.66,2.48-9.01,5.65-12.86,9.51-10.18,10.18-15.78,23.71-15.78,38.1s5.6,27.93,15.78,38.1,24.24,15.75,38.19,15.75c9.82,0,19.69-2.67,28.41-8.12,8.47,5.3,18.27,8.15,28.5,8.15,14.39,0,27.93-5.6,38.1-15.78,10.18-10.18,15.78-23.71,15.78-38.1s-5.61-27.93-15.78-38.1ZM159.78,153.22c-9.42,9.42-21.95,14.61-35.28,14.61-9.74,0-19.05-2.78-27.04-7.96-.2-.21-.45-.36-.71-.45-2.68-1.8-5.2-3.87-7.53-6.2-4.67-4.67-8.3-10.11-10.81-16.16.72-.55,1.43-1.13,2.08-1.78,3.73-3.73,5.79-8.69,5.79-13.97s-2.05-10.24-5.79-13.97c-3.73-3.73-8.69-5.79-13.97-5.79s-10.24,2.05-13.97,5.79c-3.73,3.73-5.79,8.69-5.79,13.97s2.05,10.24,5.79,13.97c3.85,3.85,8.91,5.78,13.97,5.78,2.89,0,5.77-.65,8.43-1.9,2.7,6.31,6.53,12,11.43,16.9,1.88,1.88,3.87,3.59,5.95,5.15-19.34,11.13-44.17,7.98-60.13-7.98-9.42-9.42-14.61-21.95-14.61-35.27s5.19-25.85,14.61-35.27c3.76-3.76,8.02-6.84,12.6-9.18.14-.05.28-.11.4-.19,9.49-4.75,20.35-6.36,31.1-4.43-.04.52-.08,1.05-.08,1.58,0,5.28,2.05,10.24,5.79,13.97,3.85,3.85,8.91,5.78,13.97,5.78s10.12-1.93,13.97-5.78c3.73-3.73,5.79-8.69,5.79-13.97s-2.05-10.24-5.79-13.97c-7.7-7.7-20.23-7.7-27.94,0-2.39,2.39-4.08,5.29-5,8.45-10.49-1.88-21.07-.65-30.58,3.39,1.29-11.15,6.27-21.53,14.27-29.53,9.42-9.42,21.95-14.61,35.28-14.61s25.85,5.19,35.27,14.61c17.82,17.82,19.57,45.76,4.34,65.59-3.04-1.83-6.51-2.82-10.15-2.82-5.28,0-10.24,2.05-13.97,5.79-3.73,3.73-5.79,8.69-5.79,13.97s2.05,10.24,5.79,13.97c3.85,3.85,8.91,5.78,13.97,5.78s10.12-1.93,13.97-5.78c7.7-7.7,7.7-20.23,0-27.94-.2-.2-.42-.37-.62-.56,7.25-9.45,10.92-20.59,11.12-31.76,3.57,2.12,6.88,4.68,9.85,7.65,9.42,9.42,14.61,21.95,14.61,35.27s-5.19,25.85-14.61,35.27ZM77.68,132.44c-6.14,6.14-16.14,6.14-22.28,0-2.98-2.98-4.61-6.93-4.61-11.14s1.64-8.16,4.61-11.14c2.98-2.98,6.93-4.61,11.14-4.61s8.16,1.64,11.14,4.61,4.61,6.93,4.61,11.14-1.64,8.16-4.61,11.14ZM84.86,59.3c3.07-3.07,7.1-4.61,11.14-4.61s8.07,1.54,11.14,4.61c2.98,2.98,4.61,6.93,4.61,11.14s-1.64,8.16-4.61,11.14c-6.14,6.14-16.14,6.14-22.28,0-2.98-2.98-4.61-6.93-4.61-11.14s1.64-8.16,4.61-11.14ZM136.6,132.44c-6.14,6.14-16.14,6.14-22.28,0-2.98-2.98-4.61-6.93-4.61-11.14s1.64-8.16,4.61-11.14c2.98-2.98,6.93-4.61,11.14-4.61s8.16,1.64,11.14,4.61c6.14,6.14,6.14,16.14,0,22.28Z"/></svg>