<?xml version="1.0" encoding="UTF-8"?>
<svg xmlns="http://www.w3.org/2000/svg" viewBox="0 0 192.508254 192.508254">
  <defs>
    <style>
      .cls-1 {
        fill: none;
      }

      .cls-2 {
        fill: #fff;
      }
    </style>
  </defs>
  <g id="Export">
    <path class="cls-2" d="M179.331677,140.668396l-18.005859-10.398438c-.619141-.357422-1.380859-.357422-2,0s-1,1.017578-1,1.732422v8.397461h-14.865234l-7.913208-7.913147c8.795715-9.537659,14.180786-22.26593,14.180786-36.232361,0-13.96344-5.382751-26.689392-14.17511-36.226379l7.907532-7.90741h14.865234v8.396973c0,.714355.380859,1.375,1,1.731934.30957.178711.654297.268066,1,.268066s.69043-.089355,1-.268066l18.005859-10.397461c.619141-.357422,1-1.017578,1-1.731934s-.380859-1.374512-1-1.731934l-18.005859-10.396973c-.619141-.357422-1.380859-.357422-2,0-.619141.356934-1,1.017578-1,1.731934v8.397461h-15.693359c-.530273,0-1.039062.210938-1.414062.585938l-8.487,8.486938c-9.567139-8.946472-22.402466-14.439087-36.503235-14.439087-13.966614,0-26.695068,5.385254-36.232788,14.181213l-8.229126-8.229065c-.375-.375-.883789-.585938-1.414062-.585938h-16.129883v-8.397461c0-.714355-.380859-1.375-1-1.731934-.619141-.357422-1.380859-.357422-2,0l-18.005859,10.397461c-.619141.357422-1,1.017578-1,1.731934s.380859,1.374512,1,1.731934l18.005859,10.396973c.30957.178711.654297.268066,1,.268066s.69043-.089355,1-.268066c.619141-.356934,1-1.017578,1-1.731934v-8.396973h15.301758l7.637085,7.636963c-8.942932,9.566406-14.432983,22.399231-14.432983,36.496826,0,14.100525,5.492432,26.93573,14.43866,36.502808l-7.642761,7.6427h-15.301758v-8.397461c0-.714844-.380859-1.375-1-1.732422s-1.380859-.355469-2,0l-18.005859,10.397461c-.619141.357422-1,1.017578-1,1.732422s.380859,1.375,1,1.732422l18.005859,10.397461c.30957.178711.654297.267578,1,.267578s.69043-.088867,1-.267578c.619141-.357422,1-1.017578,1-1.732422v-8.397461h16.129883c.530273,0,1.039062-.210938,1.414062-.585938l8.235168-8.235046c9.536987,8.792664,22.263062,14.175476,36.226746,14.175476,14.097778,0,26.930664-5.490234,36.497192-14.43335l8.493042,8.49292c.375.375.883789.585938,1.414062.585938h15.693359v8.397461c0,.714844.380859,1.375,1,1.732422.30957.178711.654297.267578,1,.267578s.69043-.088867,1-.267578l18.005859-10.396484c.619141-.357422,1-1.017578,1-1.732422s-.380859-1.375-1-1.732422ZM162.325818,43.187439l12.005859,6.932617-12.005859,6.933105v-13.865723ZM30.222302,57.053162l-12.005859-6.932617,12.005859-6.933105v13.865723ZM30.222302,149.332458l-12.006836-6.932617,12.006836-6.932617v13.865234ZM122.936658,119.87616c2.886353-6.891541,4.536865-14.328308,4.753845-21.963623h17.995605c-.404785,12.210693-5.242371,23.316528-12.966064,31.746887l-9.783386-9.783264ZM98.27406,91.650391v-43.229065c8.707397,5.873352,15.549255,13.985657,19.936157,23.293091l-19.936157,19.935974ZM119.904126,75.676758c2.214661,5.775879,3.512085,11.929077,3.764709,18.235779h-22.000671l18.235962-18.235779ZM94.27406,91.213867l-19.805298-19.805115c4.391235-9.191956,11.184143-17.201904,19.805298-23.017151v42.822266ZM91.316479,93.912537h-22.436829c.253662-6.42334,1.593689-12.687012,3.88031-18.556335l18.556519,18.556335ZM92.011792,97.912537l-19.191772,19.191589c-2.380798-6.060242-3.754089-12.543579-3.9599-19.191589h23.151672ZM94.27406,101.306519v42.610657c-8.576172-5.7854-15.344055-13.741882-19.737305-22.873535l19.737305-19.737122ZM98.27406,100.869995l19.888794,19.888611c-4.388733,9.265259-11.212708,17.340454-19.888794,23.192871v-43.081482ZM100.972851,97.912537h22.717651c-.198669,6.536804-1.524231,12.915466-3.828247,18.889221l-18.889404-18.889221ZM145.668774,93.912537h-17.995544c-.277283-7.405029-1.901306-14.615356-4.692139-21.312683l9.744812-9.744751c7.576599,8.272461,12.38385,19.11792,12.942871,31.057434ZM121.202771,68.721924c-4.155273-8.312683-10.166931-15.675964-17.650513-21.42218,10.09729,1.504272,19.203247,6.072144,26.351929,12.720825l-8.701416,8.701355ZM88.967236,47.291687c-7.389221,5.680786-13.339417,12.93988-17.483826,21.131714l-8.660828-8.660645c7.121704-6.524841,16.151245-10.995422,26.144653-12.471069ZM69.690564,72.286804c-2.867432,6.786438-4.537781,14.105225-4.815369,21.625732h-18.087646c.565247-12.072083,5.478088-23.021545,13.200745-31.327881l9.702271,9.702148ZM46.770215,97.912537h18.089905c.224182,7.744934,1.926697,15.283691,4.89447,22.257019l-9.760437,9.760315c-7.871033-8.463074-12.814697-19.673584-13.223938-32.017334ZM71.555127,124.025269c4.200623,8.250977,10.236755,15.548584,17.730225,21.232239-10.116333-1.426819-19.260803-5.915283-26.456665-12.50592l8.72644-8.726318ZM103.336255,145.23645c7.55426-5.747131,13.623413-13.135742,17.816772-21.487671l8.745056,8.744934c-7.198425,6.692749-16.381897,11.271912-26.561829,12.742737ZM162.325818,149.333435v-13.866211l12.006836,6.933594-12.006836,6.932617Z"/>
  </g>
  <g id="Container">
    <rect class="cls-1" width="192" height="192"/>
  </g>
</svg>