<?xml version="1.0" encoding="UTF-8"?>
<svg id="Build" xmlns="http://www.w3.org/2000/svg" viewBox="0 0 192.00028 192.0003">
  <defs>
    <style>
      .cls-1 {
        fill: #2cccd3;
      }

      .cls-2 {
        fill: #2cccd3;
      }

      .cls-3 {
        fill: #464646;
      }
    </style>
  </defs>
  <g>
    <path class="cls-2" d="M181.099233,84.822681v5.82959c-.320312,2.450195-.970215,4.910156-1.590332,7.070312-3.82959,10.060059-12.149902,17.159668-22.509766,19.589844-.129883.029785-.260254.060059-.399902.089844.02002-.619629.029785-1.259766.029785-1.890137v-.05957c-.02002-24.160156-14.149902-44.97998-34.589844-54.700195-7.880371-3.759766-16.720215-5.870117-26.040039-5.870117-4.510254,0-8.899902.5-13.109863,1.430176-23,5.060059-41.120117,23.209961-46.120117,46.239746-.910156,4.150391-1.399902,8.470215-1.399902,12.900391v.05957c0,.620117.009766,1.230469.029785,1.850098-10.450195-2.389648-18.850098-9.589844-22.689941-19.969727-2.109863-5.5-2.300293-11.330078-.950195-16.810059,2.560059-10.390137,10.709961-19.459961,22-22.450195,3.180176-.620117,6.689941-.919922,9.870117-1.239746,1.27002,0,1.27002-.600098,1.589844-1.220215,4.47998-9.819824,11.820312-15.949707,22.350098-18.399902,3.830078-.919922,7.640137-1.25,11.470215-.620117.969727.290039,1.589844,0,1.919922-.629883,7.009766-10.72998,16.890137-17.47998,29.649902-19.640137,13.089844-1.839844,24.560059,1.240234,34.439941,9.52002,7.040039,5.540039,11.820312,12.910156,13.72998,21.780273.620117,3.07959.950195,6.449707.950195,9.82959.319824.910156.319824,1.240234,1.290039,1.530273,10.22998,4.379883,16.759766,11.450195,19.350098,21.540039.139648.569824.27002,1.160156.409668,1.779785,0,.92041.320312,1.540039.320312,2.460449Z"/>
    <path class="cls-3" d="M156.599702,119.40225c-.46582,0-.921875-.163086-1.285156-.467773-.469727-.393555-.733398-.982422-.713867-1.595703.018555-.597656.02832-1.217773.02832-1.826172-.018555-22.537109-13.147461-43.299805-33.448242-52.953125-7.895508-3.767578-16.367188-5.676758-25.181641-5.676758-4.257812,0-8.523438.464844-12.677734,1.382812-22.258789,4.897461-39.763672,22.447266-44.597656,44.711914-.899414,4.100586-1.354492,8.296875-1.354492,12.475586,0,.657227.009766,1.246094.029297,1.842773.020508.620117-.248047,1.214844-.726562,1.609375-.479492.394531-1.112305.546875-1.71875.40625-11.293945-2.582031-20.084961-10.318359-24.120117-21.224609-2.166016-5.648438-2.520508-11.874023-1.016602-17.982422,2.878906-11.679688,11.856445-20.839844,23.430664-23.905273.041992-.010742.085938-.020508.128906-.029297,2.857422-.557617,5.875977-.854492,8.794922-1.142578l1.195312-.118164c.023438-.050781.047852-.101562.074219-.152344,4.700195-10.306641,12.679688-16.874023,23.675781-19.432617,4.419922-1.060547,8.429688-1.273438,12.24707-.645508.025391.003906.050781.008789.076172.013672,7.432617-11.25293,17.805664-18.075195,30.835938-20.28125,13.757812-1.9375,25.868164,1.418945,36.057617,9.958008,7.444336,5.856445,12.44043,13.786133,14.401367,22.892578.631836,3.135742.972656,6.546875.994141,9.911133.026367.009766.052734.020508.078125.03125,10.904297,4.668945,17.800781,12.367188,20.5,22.881836.126953.516602.241211,1.027344.361328,1.55957l.0625.276367c.032227.144531.048828.291992.048828.44043,0,.254883.049805.493164.118164.823242.089844.432617.202148.97168.202148,1.637695v5.829102c0,.086914-.005859.172852-.016602.258789-.34082,2.604492-1.026367,5.183594-1.652344,7.363281-.014648.053711-.033203.107422-.052734.15918-4.041016,10.618164-12.760742,18.208008-23.921875,20.826172-.147461.03418-.291016.067383-.446289.099609-.135742.029297-.273438.042969-.410156.042969ZM95.999116,52.882719c9.416016,0,18.466797,2.041016,26.901367,6.06543,21.488281,10.217773,35.455078,32.091797,35.724609,55.854492,8.817383-2.709961,15.667969-9.068359,18.985352-17.713867.567383-1.982422,1.180664-4.297852,1.489258-6.569336v-5.696289c0-.254883-.049805-.493164-.118164-.823242-.079102-.378906-.174805-.837891-.197266-1.392578l-.018555-.083984c-.114258-.505859-.223633-.992188-.338867-1.463867-2.394531-9.328125-8.318359-15.923828-18.101562-20.137695-1.613281-.521484-2.054688-1.473633-2.394531-2.487305l-.088867-.259766c-.074219-.212891-.112305-.436523-.112305-.662109,0-3.212891-.31543-6.475586-.911133-9.435547-1.782227-8.274414-6.160156-15.214844-13.006836-20.603516-9.464844-7.929688-20.219727-10.894531-32.923828-9.110352-11.896484,2.014648-21.40625,8.304688-28.211914,18.6875-.803711,1.431641-2.34668,2.015625-4.068359,1.557617-3.251953-.517578-6.708984-.317383-10.571289.608398-9.875,2.297852-16.739258,7.951172-20.998047,17.286133-.073242.147461-.098633.209961-.124023.270508-.246094.570312-.891602,2.071289-3.174805,2.118164l-1.176758.116211c-2.802734.276367-5.701172.5625-8.355469,1.075195-10.128906,2.708008-17.983398,10.740234-20.505859,20.978516-1.308594,5.310547-1.005859,10.710938.875,15.615234,3.265625,8.826172,10.037109,15.289062,18.797852,18.063477.051758-4.263672.536133-8.487305,1.442383-12.616211,5.163086-23.782227,23.864258-42.533203,47.643555-47.764648,4.435547-.979492,8.991211-1.476562,13.539062-1.476562ZM181.099702,90.65225h.009766-.009766Z"/>
  </g>
  <path class="cls-3" d="M95.999116,178.132719c-24.038086,0-46.249023-14.037109-56.585938-35.760742-3.728516-7.865234-5.750977-16.257812-6.012695-24.949219-.021484-.635742-.03125-1.267578-.03125-1.910156,0-4.526367.486328-9.010742,1.447266-13.388672,5.163086-23.782227,23.864258-42.533203,47.643555-47.764648,4.435547-.979492,8.991211-1.476562,13.539062-1.476562,9.416016,0,18.466797,2.041016,26.901367,6.06543,21.683594,10.310547,35.708984,32.490234,35.728516,56.50293v.061523c0,.651367-.009766,1.3125-.030273,1.953125-.5,16.316406-7.231445,31.575195-18.954102,42.964844-11.749023,11.415039-27.249023,17.702148-43.645508,17.702148ZM95.999116,56.882719c-4.257812,0-8.523438.464844-12.677734,1.382812-22.258789,4.897461-39.763672,22.447266-44.597656,44.711914-.899414,4.100586-1.354492,8.296875-1.354492,12.475586,0,.657227.009766,1.246094.029297,1.842773.245117,8.142578,2.138672,16,5.62793,23.360352,9.675781,20.334961,30.469727,33.476562,52.972656,33.476562,15.349609,0,29.859375-5.884766,40.857422-16.570312,10.974609-10.662109,17.275391-24.946289,17.744141-40.22168.018555-.599609.02832-1.219727.02832-1.828125l2-.05957-2,.001953c-.018555-22.479492-13.147461-43.242188-33.448242-52.895508-7.895508-3.767578-16.367188-5.676758-25.181641-5.676758Z"/>
  <path class="cls-3" d="M134.11728,146.418851H57.884858c-3.604492,0-6.537109-2.932617-6.537109-6.537109v-48.749023c0-3.604492,2.932617-6.537109,6.537109-6.537109h76.232422c3.604492,0,6.537109,2.932617,6.537109,6.537109v48.749023c0,3.604492-2.932617,6.537109-6.537109,6.537109ZM57.884858,88.595609c-1.399414,0-2.537109,1.137695-2.537109,2.537109v48.749023c0,1.399414,1.137695,2.537109,2.537109,2.537109h76.232422c1.399414,0,2.537109-1.137695,2.537109-2.537109v-48.749023c0-1.399414-1.137695-2.537109-2.537109-2.537109H57.884858Z"/>
  <g>
    <g>
      <path class="cls-1" d="M121.667498,105.936351c0,6.114286-4.95963,11.073915-11.07412,11.073915-6.114286,0-11.073915-4.95963-11.073915-11.073915,0-.72671.071359-1.4364.205669-2.12497.810577-4.174275,3.968606-7.512956,8.0463-8.583745.886036-.235196,1.818415-.361304,2.780116-.365405h.041831c.974414,0,1.919301.125903,2.822152.365405,4.077694,1.070789,7.235724,4.409471,8.0463,8.583745.13431.68857.205669,1.39826.205669,2.12497Z"/>
      <path class="cls-3" d="M110.593843,119.010648c-7.208984,0-13.074219-5.865234-13.074219-13.074219,0-.837891.081055-1.680664.242188-2.506836.949219-4.890625,4.678711-8.870117,9.501953-10.136719,1.056641-.280273,2.162109-.425781,3.280273-.430664,1.180664,0,2.302734.145508,3.383789.431641,4.818359,1.265625,8.547852,5.245117,9.49707,10.136719.161133.825195.242188,1.667969.242188,2.505859,0,7.208984-5.864258,13.074219-13.073242,13.074219ZM110.593843,96.862211c-.810547.00293-1.576172.103516-2.308594.297852-3.351562.880859-5.938477,3.640625-6.597656,7.032227-.111328.575195-.167969,1.162109-.167969,1.744141,0,5.003906,4.070312,9.074219,9.074219,9.074219,5.00293,0,9.073242-4.070312,9.073242-9.074219,0-.582031-.056641-1.168945-.167969-1.743164-.65918-3.392578-3.246094-6.152344-6.591797-7.03125-.751953-.199219-1.52832-.299805-2.313477-.299805Z"/>
    </g>
    <g>
      <path class="cls-1" d="M91.904223,135.696974c0-10.321462,8.367198-18.68866,18.68866-18.68866s18.68866,8.367198,18.68866,18.68866h-37.37732Z"/>
      <path class="cls-3" d="M129.281343,137.697172h-37.376953c-1.104492,0-2-.895508-2-2,0-11.407227,9.28125-20.688477,20.688477-20.688477s20.688477,9.28125,20.688477,20.688477c0,1.104492-.895508,2-2,2ZM94.02353,133.697172h33.138672c-.991211-8.262695-8.043945-14.688477-16.569336-14.688477s-15.578125,6.425781-16.569336,14.688477Z"/>
    </g>
  </g>
  <path class="cls-3" d="M86.160249,102.722562h-20.699219c-1.104492,0-2-.895508-2-2s.895508-2,2-2h20.699219c1.104492,0,2,.895508,2,2s-.895508,2-2,2Z"/>
  <path class="cls-3" d="M86.160249,112.581937h-20.699219c-1.104492,0-2-.895508-2-2s.895508-2,2-2h20.699219c1.104492,0,2,.895508,2,2s-.895508,2-2,2Z"/>
  <path class="cls-3" d="M86.183686,122.442289h-20.699219c-1.104492,0-2-.895508-2-2s.895508-2,2-2h20.699219c1.104492,0,2,.895508,2,2s-.895508,2-2,2Z"/>
  <path class="cls-3" d="M77.635835,132.301664h-12.151367c-1.104492,0-2-.895508-2-2s.895508-2,2-2h12.151367c1.104492,0,2,.895508,2,2s-.895508,2-2,2Z"/>
</svg>