<?xml version="1.0" encoding="UTF-8"?>
<svg xmlns="http://www.w3.org/2000/svg" viewBox="0 0 192.508254 192.508254">
  <defs>
    <style>
      .cls-1 {
        fill: none;
      }

      .cls-2 {
        fill: #da291c;
      }

      .cls-3 {
        fill: #464646;
      }
    </style>
  </defs>
  <g id="Export">
    <polygon class="cls-2" points="32.222511 60.517772 14.216576 50.120792 32.222511 39.722963 32.222511 60.517772"/>
    <polygon class="cls-2" points="160.326075 152.797412 178.332009 142.400431 160.326075 132.002602 160.326075 152.797412"/>
    <polygon class="cls-2" points="160.326075 39.72292 178.332009 50.119901 160.326075 60.51773 160.326075 39.72292"/>
    <polygon class="cls-2" points="32.222511 132.002644 14.216576 142.399625 32.222511 152.797454 32.222511 132.002644"/>
    <path class="cls-3" d="M179.332214,140.668396l-18.005859-10.398438c-.619141-.357422-1.380859-.357422-2,0s-1,1.017578-1,1.732422v8.397461h-14.866211l-7.913208-7.913208c8.795715-9.537659,14.180786-22.265869,14.180786-36.2323,0-13.96344-5.38269-26.689331-14.175049-36.226318l7.907471-7.907471h14.866211v8.396973c0,.714355.380859,1.375,1,1.731934.30957.178711.654297.268066,1,.268066s.69043-.089355,1-.268066l18.005859-10.397461c.619141-.357422,1-1.017578,1-1.731934s-.380859-1.374512-1-1.731934l-18.005859-10.396973c-.619141-.357422-1.380859-.357422-2,0-.619141.356934-1,1.017578-1,1.731934v8.397461h-15.694336c-.530273,0-1.039062.210938-1.414062.585938l-8.487,8.487c-9.567139-8.946472-22.402466-14.439148-36.503235-14.439148-13.966431,0-26.694641,5.385071-36.2323,14.180786l-8.228638-8.228638c-.375-.375-.883789-.585938-1.414062-.585938h-16.129883v-8.397461c0-.714355-.380859-1.375-1-1.731934-.619141-.357422-1.380859-.357422-2,0l-18.005859,10.397461c-.619141.357422-1,1.017578-1,1.731934s.380859,1.374512,1,1.731934l18.005859,10.396973c.30957.178711.654297.268066,1,.268066s.69043-.089355,1-.268066c.619141-.356934,1-1.017578,1-1.731934v-8.396973h15.301758l7.636536,7.636536c-8.943115,9.566528-14.433411,22.399475-14.433411,36.497253,0,14.100769,5.492676,26.936096,14.439148,36.503235l-7.642273,7.642273h-15.301758v-8.397461c0-.714844-.380859-1.375-1-1.732422s-1.380859-.355469-2,0l-18.005859,10.397461c-.619141.357422-1,1.017578-1,1.732422s.380859,1.375,1,1.732422l18.005859,10.397461c.30957.178711.654297.267578,1,.267578s.69043-.088867,1-.267578c.619141-.357422,1-1.017578,1-1.732422v-8.397461h16.129883c.530273,0,1.039062-.210938,1.414062-.585938l8.234619-8.234619c9.536987,8.792358,22.262878,14.175049,36.226318,14.175049,14.097778,0,26.930725-5.490295,36.497253-14.433411l8.492981,8.492981c.375.375.883789.585938,1.414062.585938h15.694336v8.397461c0,.714844.380859,1.375,1,1.732422.30957.178711.654297.267578,1,.267578s.69043-.088867,1-.267578l18.005859-10.396484c.619141-.357422,1-1.017578,1-1.732422s-.380859-1.375-1-1.732422ZM162.326355,43.187439l12.005859,6.932617-12.005859,6.933105v-13.865723ZM30.222839,57.053162l-12.005859-6.932617,12.005859-6.933105v13.865723ZM30.222839,149.332458l-12.006836-6.932617,12.006836-6.932617v13.865234ZM122.936218,119.875916c2.886292-6.891479,4.536865-14.328064,4.753845-21.963379h17.995605c-.404785,12.210693-5.24231,23.316528-12.966003,31.746826l-9.783447-9.783447ZM98.274597,91.649841v-43.228394c8.707336,5.873474,15.548767,13.985657,19.935486,23.292908l-19.935486,19.935486ZM119.903931,75.676758c2.214539,5.775879,3.511841,11.929077,3.764465,18.235779h-22.000244l18.235779-18.235779ZM94.274597,91.214294l-19.805481-19.805481c4.391235-9.192078,11.184143-17.201965,19.805481-23.016907v42.822388ZM91.316589,93.912537h-22.436401c.253662-6.423401,1.593567-12.687073,3.880127-18.556274l18.556274,18.556274ZM92.011902,97.912537l-19.191589,19.191589c-2.380615-6.06012-3.753845-12.543457-3.959656-19.191589h23.151245ZM94.274597,101.306091v42.611267c-8.576416-5.785034-15.344421-13.741577-19.737671-22.873596l19.737671-19.737671ZM98.274597,100.870544l19.888184,19.888184c-4.388428,9.265198-11.212158,17.340332-19.888184,23.192749v-43.080933ZM100.972839,97.912537h22.717224c-.198669,6.536804-1.523987,12.915527-3.827942,18.889282l-18.889282-18.889282ZM145.668335,93.912537h-17.995544c-.277222-7.40509-1.901184-14.615356-4.691895-21.312744l9.744629-9.744629c7.576538,8.272461,12.383789,19.11792,12.94281,31.057373ZM121.202637,68.721802c-4.155151-8.312683-10.166565-15.675964-17.650208-21.421997,10.097046,1.504333,19.20282,6.072205,26.351379,12.720825l-8.701172,8.701172ZM88.967468,47.291626c-7.389221,5.680542-13.339478,12.939758-17.483826,21.131714l-8.661011-8.661011c7.121765-6.52478,16.151428-10.995178,26.144836-12.470703ZM69.690796,72.286743c-2.867249,6.786438-4.537476,14.105164-4.815063,21.625793h-18.088623c.565247-12.072327,5.478271-23.021912,13.201172-31.328308l9.702515,9.702515ZM46.769775,97.912537h18.090881c.224182,7.745056,1.926575,15.283875,4.894165,22.25708l-9.760681,9.760681c-7.871277-8.463196-12.815125-19.673828-13.224365-32.017761ZM71.555298,124.025391c4.200562,8.251221,10.236816,15.548767,17.730347,21.232239-10.116394-1.426636-19.260986-5.915039-26.45697-12.505615l8.726624-8.726624ZM103.336304,145.236389c7.554016-5.747375,13.623047-13.135925,17.816345-21.487793l8.745056,8.745056c-7.198303,6.692749-16.381592,11.27179-26.561401,12.742737ZM162.326355,149.333435v-13.866211l12.006836,6.933594-12.006836,6.932617Z"/>
  </g>
  <g id="Container">
    <rect class="cls-1" width="192" height="192"/>
  </g>
</svg>