<?xml version="1.0" encoding="UTF-8"?><svg id="Security_Networking" xmlns="http://www.w3.org/2000/svg" viewBox="0 0 192 192"><defs><style>.cls-1{fill:#464646;}.cls-2{fill:#fff;}.cls-3{fill:#307fe2;}.cls-4{fill:#c8c8c8;}</style></defs><path class="cls-3" d="M181.1,84.82v5.83c-.32,2.45-.97,4.91-1.59,7.07-3.83,10.06-12.15,17.16-22.51,19.59-.13.03-.26.06-.4.09.02-.62.03-1.26.03-1.89v-.06c-.02-24.16-14.15-44.98-34.59-54.7-7.88-3.76-16.72-5.87-26.04-5.87-4.51,0-8.9.5-13.11,1.43-23,5.06-41.12,23.21-46.12,46.24-.91,4.15-1.4,8.47-1.4,12.9v.06c0,.62,0,1.23.03,1.85-10.45-2.39-18.85-9.59-22.69-19.97-2.11-5.5-2.3-11.33-.95-16.81,2.56-10.39,10.71-19.46,22-22.45,3.18-.62,6.69-.92,9.87-1.24,1.27,0,1.27-.6,1.59-1.22,4.48-9.82,11.82-15.95,22.35-18.4,3.83-.92,7.64-1.25,11.47-.62.97.29,1.59,0,1.92-.63,7.01-10.73,16.89-17.48,29.65-19.64,13.09-1.84,24.56,1.24,34.44,9.52,7.04,5.54,11.82,12.91,13.73,21.78.62,3.08.95,6.45.95,9.83.32.91.32,1.24,1.29,1.53,10.23,4.38,16.76,11.45,19.35,21.54.14.57.27,1.16.41,1.78,0,.92.32,1.54.32,2.46h0Z"/><path class="cls-1" d="M156.6,119.4c-.46,0-.92-.16-1.28-.47-.47-.39-.74-.98-.72-1.6.02-.6.03-1.22.03-1.83-.02-22.54-13.15-43.3-33.45-52.95-7.9-3.77-16.37-5.68-25.18-5.68-4.26,0-8.52.47-12.68,1.38-22.26,4.9-39.76,22.45-44.6,44.71-.9,4.1-1.35,8.3-1.35,12.48,0,.66,0,1.25.03,1.84.02.62-.25,1.21-.73,1.61-.48.39-1.11.54-1.72.41-11.29-2.58-20.09-10.32-24.12-21.23-2.17-5.65-2.52-11.87-1.02-17.98,2.88-11.68,11.86-20.84,23.43-23.91.04,0,.09-.02.13-.03,2.86-.56,5.88-.86,8.81-1.14l1.18-.12s.05-.1.08-.15c4.7-10.31,12.68-16.87,23.67-19.43,4.42-1.06,8.43-1.27,12.25-.65.03,0,.05,0,.08,0,7.43-11.25,17.81-18.08,30.84-20.28,13.75-1.93,25.87,1.42,36.06,9.96,7.44,5.86,12.44,13.79,14.4,22.89.63,3.14.97,6.55.99,9.91.03,0,.05.02.08.03,10.9,4.67,17.8,12.37,20.5,22.88.13.51.24,1.01.36,1.54l.07.3c.03.14.05.29.05.44,0,.25.05.49.12.82.09.43.2.97.2,1.64v5.83c0,.09,0,.17-.02.26-.34,2.61-1.03,5.19-1.65,7.36-.02.05-.03.11-.05.16-4.04,10.62-12.76,18.21-23.92,20.83l-.44.1c-.14.03-.28.04-.42.04v.02ZM96,52.88c9.42,0,18.47,2.04,26.9,6.06,21.49,10.22,35.45,32.09,35.72,55.85,8.84-2.72,15.67-9.08,18.98-17.71.57-1.98,1.18-4.3,1.49-6.57v-5.7c0-.25-.05-.49-.12-.82-.08-.38-.17-.84-.2-1.39l-.02-.11c-.11-.5-.22-.98-.33-1.44-2.39-9.33-8.32-15.92-18.1-20.14-1.61-.52-2.05-1.47-2.39-2.49l-.09-.26c-.07-.21-.11-.44-.11-.66,0-3.21-.31-6.48-.91-9.43-1.78-8.27-6.16-15.22-13.01-20.6-9.46-7.93-20.22-10.9-32.92-9.11-11.9,2.01-21.41,8.3-28.21,18.69-.8,1.43-2.34,2.02-4.07,1.56-3.25-.52-6.71-.32-10.57.61-9.88,2.3-16.74,7.95-21,17.29-.07.15-.1.21-.13.27-.25.57-.89,2.07-3.17,2.12l-1.16.12c-2.81.28-5.71.56-8.37,1.08-10.13,2.71-17.98,10.74-20.51,20.98-1.31,5.31-1.01,10.71.88,15.62,3.27,8.83,10.04,15.29,18.8,18.06.05-4.27.54-8.49,1.44-12.62,5.16-23.78,23.87-42.53,47.64-47.76,4.43-.98,8.99-1.48,13.54-1.48,0,0,0-.02,0-.02ZM181.1,90.65h0,0Z"/><path class="cls-1" d="M158.62,114.79c0-.37-.01-.74-.02-1.11-.01-.37-.03-.74-.04-1.11-.04-.74-.09-1.48-.15-2.21-.03-.37-.06-.73-.1-1.1-.04-.37-.08-.73-.12-1.09-.04-.37-.09-.73-.14-1.1-.05-.36-.1-.72-.16-1.08-.05-.36-.11-.72-.18-1.08-.05-.31-.1-.61-.16-.91-.13-.68-.27-1.36-.42-2.04-.14-.64-.29-1.28-.46-1.91-.09-.34-.18-.69-.28-1.04-.14-.5-.28-.99-.43-1.49-.06-.2-.12-.4-.18-.6-.01-.03-.02-.07-.03-.1-.15-.47-.31-.94-.47-1.41-.11-.35-.23-.69-.36-1.03-.16-.45-.33-.89-.5-1.33-.23-.61-.48-1.22-.73-1.82-.12-.29-.25-.58-.38-.87-.24-.54-.48-1.08-.74-1.62-.13-.29-.27-.58-.41-.87-.08-.15-.15-.3-.23-.45-.26-.52-.53-1.04-.82-1.55-.06-.12-.12-.24-.19-.36-.35-.64-.7-1.26-1.07-1.88-.35-.6-.72-1.21-1.11-1.8-.04-.08-.09-.15-.15-.23-.03-.04-.05-.09-.09-.13-.31-.5-.64-.99-.98-1.48-.36-.53-.73-1.05-1.11-1.56-.01-.01-.01-.02-.02-.03-.13-.19-.28-.38-.42-.57-.33-.44-.67-.88-1.02-1.32-.45-.57-.9-1.12-1.37-1.67-.03-.04-.06-.08-.1-.12-.44-.51-.88-1.01-1.34-1.51-.34-.38-.7-.76-1.06-1.13l-.17-.17s-.08-.09-.12-.13c-.3-.31-.6-.61-.9-.9-.26-.27-.52-.52-.78-.77-.52-.5-1.06-.99-1.6-1.47-.42-.38-.85-.76-1.29-1.11-.04-.03-.08-.07-.12-.1-.05-.04-.09-.08-.14-.12-.56-.47-1.13-.93-1.71-1.38s-1.17-.89-1.77-1.32c-.07-.05-.15-.11-.22-.16-.41-.3-.83-.59-1.25-.87-.12-.08-.23-.15-.35-.23-.62-.41-1.24-.81-1.87-1.2-.63-.39-1.27-.77-1.92-1.14-.09-.05-.19-.11-.28-.16-.55-.31-1.11-.61-1.68-.91,0,0-.02-.01-.02-.01-.65-.34-1.32-.67-1.99-.99-8.43-4.02-17.48-6.06-26.9-6.06-4.55,0-9.11.5-13.54,1.48-4.46.98-8.74,2.44-12.78,4.33-1.98.91-3.91,1.93-5.77,3.05-.09.05-.18.1-.27.16-.58.36-1.16.72-1.73,1.09-.61.4-1.23.81-1.83,1.23-1.21.83-2.38,1.72-3.52,2.66-.57.44-1.13.92-1.68,1.41-.56.49-1.1.98-1.64,1.48-.53.5-1.06,1.01-1.58,1.53s-1.03,1.05-1.53,1.59c-1.51,1.61-2.93,3.3-4.24,5.07-.44.58-.87,1.18-1.29,1.78-.42.61-.83,1.22-1.23,1.84-.39.61-.78,1.22-1.15,1.85t-.02.03s-.02.03-.03.05c-.35.59-.7,1.19-1.03,1.8-.02.04-.04.07-.06.11-.01.01-.01.02-.01.03-.07.12-.14.25-.2.37-.2.34-.38.69-.55,1.04-.06.1-.11.21-.16.31-.07.11-.13.23-.18.34-.3.61-.6,1.22-.88,1.84-.26.56-.51,1.13-.75,1.7-.1.22-.19.44-.28.67-.22.52-.43,1.05-.63,1.58-.06.15-.12.3-.17.46-.23.61-.44,1.22-.65,1.83-.22.67-.44,1.34-.64,2.02-.04.11-.07.22-.1.34-.19.65-.37,1.31-.54,1.98-.18.72-.36,1.45-.52,2.19v.02c-.09.43-.18.87-.27,1.3-.02.13-.05.25-.07.38-.08.4-.15.8-.22,1.19-.02.09-.03.19-.05.28-.07.43-.13.86-.19,1.29-.02.09-.03.17-.04.26-.07.52-.14,1.04-.2,1.56-.06.49-.11.99-.15,1.49,0,.05,0,.11-.02.16-.04.5-.08,1.01-.11,1.52-.03.53-.06,1.06-.08,1.59s-.03,1.07-.04,1.6c0,.25,0,.5,0,.75,0,.44,0,.88.02,1.32,0,.2,0,.39.01.59l.06,1.5c.44,8.16,2.44,16.04,5.95,23.45,10.34,21.72,32.55,35.76,56.59,35.76v-.02c16.4,0,31.9-6.28,43.65-17.7,11.35-11.03,18.02-25.7,18.88-41.43h0c.03-.52.05-1.02.07-1.53.01-.18.01-.37.01-.56.01-.46.02-.93.02-1.39v-.06c0-.22,0-.44-.01-.65ZM136.86,157.56c-11,10.68-25.51,16.57-40.86,16.57-22.5,0-43.29-13.14-52.97-33.48-3.48-7.34-5.37-15.19-5.63-23.31v-.05c-.03-.59-.03-1.18-.03-1.84,0-4.18.45-8.38,1.35-12.48.02-.08.04-.17.06-.25.09-.44.19-.87.3-1.3.14-.56.28-1.11.44-1.66,0-.04.02-.08.03-.12.01-.03.02-.07.03-.1.09-.32.18-.62.27-.94.11-.36.22-.71.34-1.07.11-.35.23-.71.35-1.06.12-.35.24-.71.37-1.05.11-.29.21-.58.32-.86,0-.04.03-.08.04-.12.17-.42.33-.84.5-1.25.13-.3.25-.59.38-.88.33-.79.69-1.57,1.07-2.33.24-.54.51-1.07.79-1.59.18-.35.37-.7.56-1.05.18-.32.36-.64.54-.96.32-.57.65-1.13,1-1.68.01,0,.01-.01.01-.01.09-.16.19-.31.29-.45.13-.22.26-.42.4-.63.14-.21.28-.42.42-.63.1-.16.2-.33.31-.48.03-.05.06-.09.1-.14.31-.45.62-.9.95-1.34.06-.08.12-.17.18-.25.4-.55.81-1.09,1.24-1.62.01-.02.02-.04.04-.05.45-.57.91-1.13,1.38-1.68.19-.22.38-.44.57-.66.29-.33.59-.65.89-.98.24-.27.5-.54.75-.8s.51-.52.76-.78c.2-.21.41-.41.62-.61.31-.31.63-.62.95-.92.38-.35.76-.7,1.15-1.04.38-.35.77-.68,1.17-1.01.35-.3.7-.59,1.06-.88.45-.36.9-.71,1.35-1.06.55-.41,1.11-.82,1.67-1.21.46-.33.92-.64,1.4-.95.03-.02.07-.04.1-.06.32-.21.63-.42.96-.61.02-.02.05-.04.07-.05.03-.02.06-.04.09-.06.32-.2.64-.4.96-.59.41-.24.82-.48,1.24-.72.27-.16.56-.31.84-.46.03-.02.05-.04.08-.05.29-.15.58-.31.87-.46.24-.13.49-.25.73-.37.43-.22.86-.43,1.3-.64.36-.17.72-.33,1.09-.49.11-.05.22-.1.34-.16.06-.02.11-.05.17-.07.59-.26,1.18-.5,1.78-.74,1.31-.52,2.65-.99,4.01-1.42.68-.21,1.36-.41,2.05-.6.02-.01.04-.01.06-.02.05-.01.1-.03.15-.04.32-.09.64-.17.97-.25.25-.07.51-.13.76-.19.1-.02.19-.04.29-.07.21-.04.43-.09.64-.14,4.16-.91,8.42-1.38,12.68-1.38,8.81,0,17.28,1.91,25.18,5.68,5.07,2.41,9.7,5.52,13.79,9.17.38.34.76.68,1.13,1.04.07.06.13.12.19.18.06.05.12.11.19.18.13.13.26.25.39.38.26.25.52.51.77.77.13.13.25.26.38.39.07.08.15.15.22.23.31.32.61.64.91.97.21.22.41.45.61.68.01.01.02.02.02.03.4.44.78.88,1.15,1.33.42.5.83,1.01,1.23,1.53.12.14.23.28.33.43.19.25.38.49.56.74.18.24.36.49.54.74.2.27.39.55.58.82.16.24.33.48.49.72.03.04.05.08.08.12.06.1.13.19.19.29.37.55.72,1.11,1.05,1.67.17.28.35.56.51.85.17.28.33.56.49.85.07.11.14.23.2.36.28.48.54.97.79,1.46.08.15.16.3.23.45.13.26.27.51.39.77.13.26.26.52.38.78.06.11.11.22.16.34.01.02.02.04.03.06.19.42.38.84.56,1.26.13.29.25.57.37.86.16.38.32.76.46,1.14.1.23.19.46.27.69.14.36.27.73.4,1.09.03.08.05.15.08.23.12.33.24.66.35,1,.14.42.28.85.4,1.28.04.13.08.26.12.39.07.24.14.48.21.72.08.28.16.55.23.83.11.37.21.75.3,1.13.13.52.25,1.04.36,1.56.16.67.29,1.35.41,2.03.1.53.19,1.06.26,1.59,0,.06.02.12.03.18.04.17.06.34.08.52v.04c.09.59.17,1.18.23,1.78.08.69.15,1.39.19,2.09.06.69.1,1.39.12,2.09.03.69.04,1.37.04,2.06h2l-2,.06c0,.61-.01,1.23-.03,1.83v.05c-.48,15.25-6.78,29.52-17.74,40.17Z"/><path class="cls-3" d="M83.17,106.16l-1.58,1.24-1.58,1.22-6.24,4.88-2.98,2.33-3.04,2.37-3.06-2.48-2.85-2.3-12.51-10.12-2.26-1.83h33.51c.22.63.48,1.24.77,1.83.19.39.4.76.63,1.13.35.6.75,1.18,1.19,1.73Z"/><path class="cls-1" d="M87.79,114.67v.84c.42-.11.85-.22,1.27-.32-.43-.15-.85-.33-1.27-.52ZM91.79,113.92c-.89-.2-1.74-.48-2.57-.81-.49-.19-.97-.4-1.43-.65v5.14c1.3-.39,2.63-.68,4-.88v-.75c-.94-.2-1.85-.46-2.73-.78.89-.2,1.8-.37,2.73-.49v-.78ZM79.99,99.3h-31.79c-2.33,0-4.23,1.89-4.23,4.22v26.56c0,2.33,1.9,4.22,4.23,4.22h21.07c.57-1.39,1.25-2.73,2.03-4h-23.1c-.12,0-.23-.1-.23-.22v-26.56c0-.12.11-.22.23-.22h33.15c-.29-.59-.55-1.2-.77-1.83-.25-.71-.45-1.43-.59-2.17ZM82.13,130.74c-1.11,0-2,.89-2,2v1.56h4v-1.56c0-1.11-.9-2-2-2ZM87.79,110.19v7.41c1.3-.39,2.63-.68,4-.88v-4.86c-1.42-.38-2.76-.94-4-1.67Z"/><path class="cls-1" d="M84.43,107.59l-1.56,1.27-1.55,1.27-5.97,4.88-3.12,2.55-3.21,2.62c-.37.3-.82.45-1.27.45s-.89-.15-1.26-.45l-3.25-2.66-3.11-2.54-12.16-9.93-1.69-1.38c-.86-.7-.99-1.96-.29-2.81.7-.86,1.96-.99,2.82-.29l1.1.9,2.24,1.83,15.6,12.75,11.1-9.07,1.55-1.26,1.58-1.29c.35.6.75,1.18,1.19,1.73.39.5.81.98,1.26,1.43Z"/><path class="cls-1" d="M46.78,133c-.52,0-1.03-.2-1.42-.59-.78-.79-.77-2.05.02-2.83l15.99-15.81c.79-.78,2.05-.77,2.83.02.78.79.77,2.05-.02,2.83l-15.99,15.81c-.39.39-.9.58-1.41.58Z"/><path class="cls-1" d="M81.01,120.61c-1.16.7-2.28,1.49-3.32,2.35l-1.44-1.43-1.42-1.4-2.6-2.57-.97-.96c-.22-.22-.39-.49-.47-.77-.25-.69-.09-1.5.46-2.06.67-.68,1.73-.78,2.52-.27.11.08.21.16.31.26l1.27,1.25,2.73,2.71,1.45,1.43,1.48,1.46Z"/><path class="cls-3" d="M145.51,101.3v10.25h-42.77v-.6c.51-.23,1-.49,1.48-.77,2.76-1.61,5-4.01,6.42-6.88.32-.64.59-1.31.82-2h34.05Z"/><path class="cls-1" d="M147.51,113.02c0,1.1-.89,2-2,2h-43.26c-.06,0-.11,0-.16-.01,0,0-.02-.01-.04,0-.13-.03-.26-.06-.39-.08h0c-.54-.17-.98-.57-1.21-1.07-.12-.26-.19-.54-.19-.84,0-.12,0-.23.03-.34.06-.37.22-.71.47-.98.36-.42.9-.68,1.5-.68h43.26c1.11,0,2,.89,2,2Z"/><circle class="cls-2" cx="139.43" cy="107.17" r="1.77"/><circle class="cls-2" cx="133.68" cy="107.17" r="1.77"/><circle class="cls-2" cx="127.52" cy="107.17" r="1.77"/><path class="cls-1" d="M102.74,110.95v.07h-.16c-.59.27-1.2.49-1.83.68-.25.27-.41.61-.47.98-.02.11-.03.22-.03.34,0,.3.07.58.19.84.23.5.67.9,1.21,1.06.14.03.29.06.42.09h.02c.28.06.57.12.84.18.22.05.44.1.65.16.17.04.35.08.52.13l.12.03v-5.33c-.48.28-.97.54-1.48.77ZM102.74,110.95s-.11.05-.16.07h-.33c-.6,0-1.14.26-1.5.68-.17.06-.35.11-.53.16v4.86c1.37.2,2.7.49,4,.88v-7.42c-.48.28-.97.54-1.48.77ZM109.86,130.74c-1.1,0-2,.89-2,2v1.56h4v-1.56c0-1.11-.89-2-2-2ZM143.81,99.3h-31.81c-.13.68-.31,1.35-.54,2-.23.69-.5,1.36-.82,2h33.17c.12,0,.22.1.22.22v26.56c0,.12-.1.22-.22.22h-23.11c.78,1.27,1.46,2.61,2.03,4h21.08c2.33,0,4.22-1.89,4.22-4.22v-26.56c0-2.33-1.89-4.22-4.22-4.22ZM102.74,111.02h-.16c-.59.27-1.2.49-1.83.68-.25.27-.41.61-.47.98-.02,0-.04,0-.06-.01v4.05c1.37.2,2.7.49,4,.88v-7.42c-.48.28-.97.54-1.48.77v.07Z"/><path class="cls-4" d="M96,77.76c-10.12,0-18.33,8.21-18.33,18.33,0,1.1.1,2.17.28,3.21.13.74.31,1.46.52,2.17.19.63.42,1.24.68,1.83.36.84.78,1.65,1.25,2.42.37.58.76,1.15,1.19,1.68.4.51.82,1,1.28,1.46,1.42,1.47,3.08,2.69,4.92,3.6.46.25.94.46,1.43.65.83.33,1.68.61,2.57.81,1.35.32,2.76.49,4.21.49s2.87-.17,4.22-.5c.08-.01.15-.02.22-.05.8-.19,1.58-.44,2.33-.75.5-.19.98-.41,1.45-.65.55-.27,1.09-.58,1.6-.91.27-.17.54-.34.79-.53,2.73-1.94,4.9-4.6,6.23-7.72.28-.65.53-1.31.73-2,.19-.65.35-1.32.47-2,.18-1.04.28-2.11.28-3.21,0-10.12-8.2-18.33-18.32-18.33ZM111.46,101.3c-.23.69-.5,1.36-.82,2-1.42,2.87-3.66,5.27-6.42,6.88-.48.28-.97.54-1.48.77-.05.03-.11.05-.16.07h-.33c-.6,0-1.14.26-1.5.68-.17.06-.35.11-.53.16-1.34.36-2.76.55-4.22.55s-2.87-.19-4.21-.55c-1.42-.38-2.76-.94-4-1.67-1.23-.71-2.36-1.59-3.36-2.6-.45-.45-.87-.93-1.26-1.43-.44-.55-.84-1.13-1.19-1.73-.23-.37-.44-.74-.63-1.13-.29-.59-.55-1.2-.77-1.83-.25-.71-.45-1.43-.59-2.17-.21-1.04-.32-2.11-.32-3.21,0-9,7.32-16.33,16.33-16.33s16.32,7.33,16.32,16.33c0,1.1-.11,2.17-.32,3.21-.13.68-.31,1.35-.54,2Z"/><path class="cls-1" d="M102.58,111.02h.16v-.07s-.11.05-.16.07ZM100.75,111.7c-.17.06-.35.11-.53.16-1.34.36-2.76.55-4.22.55s-2.87-.19-4.21-.55c-1.42-.38-2.76-.94-4-1.67-1.23-.71-2.36-1.59-3.36-2.6-.45-.45-.87-.93-1.26-1.43l-1.58,1.24c.4.51.82,1,1.28,1.46,1.42,1.47,3.08,2.69,4.92,3.6v2.21c.42.19.84.37,1.27.52.89-.2,1.8-.37,2.73-.49,1.37-.19,2.78-.29,4.21-.29s2.84.1,4.22.29v-.79c.08-.01.15-.02.22-.05-.12-.26-.19-.54-.19-.84,0-.12,0-.23.03-.34.06-.37.22-.71.47-.98ZM96,75.76c-11.21,0-20.33,9.12-20.33,20.33,0,1.09.09,2.17.25,3.21.12.74.28,1.46.48,2.17.16.62.36,1.23.6,1.83.48,1.3,1.11,2.53,1.85,3.68.35.57.74,1.12,1.16,1.64.41.53.85,1.03,1.31,1.51,1.43,1.49,3.08,2.77,4.89,3.76.52.29,1.04.55,1.58.78.42.19.84.37,1.27.52.88.32,1.79.58,2.73.78,1.36.29,2.76.44,4.21.44s2.86-.15,4.22-.44c.93-.2,1.83-.46,2.71-.78.14-.05.29-.1.43-.17.29-.1.58-.22.86-.36.53-.23,1.05-.48,1.56-.77,1.21-.66,2.34-1.44,3.38-2.34.2-.17.4-.34.6-.53,2.3-2.11,4.11-4.75,5.23-7.72.26-.65.47-1.32.65-2,.18-.65.32-1.32.43-2,.16-1.04.25-2.12.25-3.21,0-11.21-9.12-20.33-20.32-20.33ZM112,99.3c-.13.68-.31,1.35-.54,2-.23.69-.5,1.36-.82,2-1.42,2.87-3.66,5.27-6.42,6.88-.48.28-.97.54-1.48.77-.05.03-.11.05-.16.07-.59.27-1.2.49-1.83.68-.17.06-.35.11-.53.16-1.34.36-2.76.55-4.22.55s-2.87-.19-4.21-.55c-1.42-.38-2.76-.94-4-1.67-1.23-.71-2.36-1.59-3.36-2.6-.45-.45-.87-.93-1.26-1.43-.44-.55-.84-1.13-1.19-1.73-.23-.37-.44-.74-.63-1.13-.29-.59-.55-1.2-.77-1.83-.25-.71-.45-1.43-.59-2.17-.21-1.04-.32-2.11-.32-3.21,0-9,7.32-16.33,16.33-16.33s16.32,7.33,16.32,16.33c0,1.1-.11,2.17-.32,3.21Z"/><path class="cls-4" d="M124.89,134.3c-.53-1.39-1.15-2.72-1.87-4-3.99-7.16-10.73-12.57-18.8-14.79l-.12-.03c-.17-.05-.35-.09-.52-.13-.21-.06-.43-.11-.65-.16-.27-.06-.56-.12-.84-.18h-.02c-.13-.03-.28-.06-.42-.09-.47-.08-.95-.16-1.43-.22-1.38-.19-2.79-.29-4.22-.29-.34,0-.69.01-1.03.02-.21,0-.42.01-.64.03-.26.01-.53.03-.79.05-.03,0-.07,0-.1.01-.25.02-.5.04-.75.07-.3.03-.6.07-.9.11-.93.12-1.84.29-2.73.49-.42.1-.85.21-1.27.32-2.96.81-5.73,2.05-8.26,3.64-1.15.72-2.24,1.52-3.28,2.38-2.93,2.44-5.41,5.41-7.28,8.77-.72,1.28-1.34,2.61-1.87,4-1.31,3.43-2.03,7.15-2.03,11.04h61.85c0-3.89-.72-7.61-2.03-11.04ZM111.86,143.34v-10.6c0-1.11-.89-2-2-2s-2,.89-2,2v10.6h-23.73v-10.6c0-1.11-.9-2-2-2s-2,.89-2,2v10.6h-12.99c.22-3.18.95-6.22,2.13-9.04.57-1.39,1.25-2.73,2.03-4,1.7-2.79,3.87-5.27,6.39-7.34,1.04-.86,2.16-1.65,3.32-2.35,2.1-1.28,4.37-2.3,6.78-3.01,1.3-.39,2.63-.68,4-.88,1.38-.21,2.78-.31,4.21-.31s2.84.1,4.22.31c1.37.2,2.7.49,4,.88,6.93,2.06,12.79,6.65,16.48,12.7.78,1.27,1.46,2.61,2.03,4,1.18,2.82,1.91,5.86,2.13,9.04h-13Z"/><path class="cls-1" d="M127.02,134.3c-.49-1.38-1.07-2.71-1.74-4-3.51-6.82-9.34-12.26-16.43-15.28-1-.42-2.03-.8-3.07-1.13-.52-.16-1.04-.31-1.56-.44-.48-.13-.96-.24-1.45-.34-.82-.17-1.65-.31-2.49-.43-.02,0-.04,0-.06-.01-1.39-.17-2.79-.26-4.22-.26s-2.83.09-4.21.26c-.87.12-1.72.26-2.57.44-.48.1-.96.21-1.43.34-.53.13-1.05.28-1.57.44h0c-2.9.91-5.64,2.21-8.13,3.83-1.14.74-2.22,1.55-3.25,2.41-3.34,2.81-6.11,6.26-8.12,10.17-.66,1.29-1.25,2.62-1.74,4-1.23,3.45-1.9,7.17-1.9,11.04,0,1.11.89,2,2,2h61.85c1.11,0,2-.89,2-2,0-3.87-.67-7.59-1.9-11.04ZM69.27,134.3c.57-1.39,1.25-2.73,2.03-4,1.7-2.79,3.87-5.27,6.39-7.34,1.04-.86,2.16-1.65,3.32-2.35,2.1-1.28,4.37-2.3,6.78-3.01,1.3-.39,2.63-.68,4-.88,1.38-.21,2.78-.31,4.21-.31s2.84.1,4.22.31c1.37.2,2.7.49,4,.88,6.93,2.06,12.79,6.65,16.48,12.7.78,1.27,1.46,2.61,2.03,4,1.18,2.82,1.91,5.86,2.13,9.04h-57.72c.22-3.18.95-6.22,2.13-9.04ZM104.1,115.48c-.17-.05-.35-.09-.52-.13-.21-.06-.43-.11-.65-.16-.27-.06-.56-.12-.84-.18h-.02c-.13-.03-.28-.06-.42-.09-.54-.16-.98-.56-1.21-1.06-.12-.26-.19-.54-.19-.84,0-.12,0-.23.03-.34-.02,0-.04,0-.06-.01v1.24c-1.35.33-2.77.5-4.22.5s-2.86-.17-4.21-.49v.78c-.93.12-1.84.29-2.73.49-.42.1-.85.21-1.27.32v2.09c1.3-.39,2.63-.68,4-.88,1.38-.21,2.78-.31,4.21-.31s2.84.1,4.22.31c1.37.2,2.7.49,4,.88v-2.09l-.12-.03Z"/><path class="cls-1" d="M84.13,132.74v12.6c0,1.11-.9,2-2,2s-2-.89-2-2v-12.6c0-1.11.89-2,2-2s2,.89,2,2Z"/><path class="cls-1" d="M111.86,132.74v12.6c0,1.11-.89,2-2,2s-2-.89-2-2v-12.6c0-1.11.9-2,2-2s2,.89,2,2Z"/></svg>