<?xml version="1.0" encoding="UTF-8"?><svg id="Security_Networking" xmlns="http://www.w3.org/2000/svg" viewBox="0 0 192 192"><defs><style>.cls-1{fill:#d8291c;}.cls-2{fill:none;stroke:#464646;stroke-linecap:round;stroke-linejoin:round;stroke-width:3.95px;}.cls-3{fill:#2cccd3;}.cls-4{fill:#464646;}.cls-5{fill:#307fe2;}</style></defs><path class="cls-4" d="M86.61,50.96c-.77-2.11-2.79-3.51-5.03-3.51s-4.26,1.41-5.03,3.51l-18.93,51.55c-.85,2.32.86,4.77,3.34,4.77,1.51,0,2.84-.94,3.35-2.36l5.18-14.58h24.19l5.18,14.58c.5,1.42,1.84,2.36,3.35,2.36,2.47,0,4.18-2.46,3.34-4.77l-18.93-51.55h-.02ZM71.76,83.92l9.58-27h.46l9.58,27h-19.64,0Z"/><path class="cls-4" d="M120.27,47.45c-2.01,0-3.62,1.62-3.62,3.62v52.6c0,2.01,1.62,3.62,3.62,3.62s3.62-1.62,3.62-3.62v-52.6c0-2-1.62-3.62-3.62-3.62Z"/><g id="Artwork_912"><g id="Artwork_912-2"><path class="cls-1" d="M114.4,130.25v6.66h-10.37v-6.66h10.37ZM90.82,146.42h10.37v-6.66h-10.37v6.66ZM114.39,126.32c0-3.09-2.5-5.59-5.59-5.59h-4.78v6.67h10.37v-1.08ZM90.82,120.74v6.66h10.37v-6.66h-10.37ZM77.6,130.25h0v6.66h10.37v-6.66h-10.37ZM104.03,146.42h4.78c3.09,0,5.59-2.5,5.59-5.59v-1.08h-10.37v6.66h0ZM77.6,140.84c0,3.09,2.5,5.59,5.59,5.59h4.78v-6.66h-10.37v1.08h0ZM77.6,126.32v1.08h10.37v-6.67h-4.78c-3.09,0-5.59,2.5-5.59,5.59Z"/></g></g><polyline class="cls-2" points="164.24 72.55 164.24 132.5 113.19 162.01"/><circle class="cls-3" cx="27.76" cy="53.71" r="8.09"/><circle class="cls-1" cx="164.24" cy="53.71" r="8.09"/><circle class="cls-5" cx="96" cy="171.91" r="8.09"/><polyline class="cls-2" points="78.88 162.01 27.76 132.5 27.76 72.54"/><polyline class="cls-2" points="43.81 44.45 96 14.31 148.19 44.45"/></svg>