<?xml version="1.0" encoding="UTF-8"?>
<svg id="Layer_1" data-name="Layer 1" xmlns="http://www.w3.org/2000/svg" viewBox="0 0 190 190">
  <defs>
    <style>
      .cls-1 {
        fill: #2cccd3;
      }

      .cls-2 {
        fill: #464646;
      }
    </style>
  </defs>
  <path class="cls-2" d="M95.900101,133.899994c-22.199997,0-40.299999-18.099991-40.299999-40.299995s18.100002-40.299999,40.299999-40.299999c.5,0,1,.2001,1.400002.600101.400002.399998.599998.899899.599998,1.399899v36.299999h36.299896c1.100006,0,2,.900002,2,2,0,22.200005-18.099998,40.299995-40.299896,40.299995ZM93.900101,57.400101c-19.099998,1.099998-34.299999,16.899902-34.299999,36.199898s16.299999,36.299995,36.299999,36.299995,35.199905-15.199997,36.199905-34.299995h-36.199905c-1.099998,0-2-.900002-2-2v-36.199898Z"/>
  <path class="cls-1" d="M140.399994,93.600098h-44.500092v-44.499996c24.600098,0,44.500092,19.999996,44.500092,44.499996Z"/>
  <path class="cls-2" d="M140.399994,95.600098h-44.500092c-1.100006,0-2-.899994-2-2v-44.499996c0-1.100002.899994-2,2-2,25.700096,0,46.500092,20.899998,46.500092,46.499996,0,2-.899994,2-2,2ZM97.899902,91.600098h40.500092c-1-21.799995-18.599991-39.399998-40.500092-40.499996v40.499996Z"/>
  <path class="cls-2" d="M70.499802,161.100006c-.300003,0-.700005,0-1-.300003-9-5.300003-15.200001-10.199997-20.700001-16.5-8.5-9.600006-13.5-23.5-13.5-37s.899998-2,2-2,2,.899994,2,2c0,12.599998,4.700001,25.5,12.5,34.399994,5.200001,5.900009,11.099998,10.600006,19.700001,15.699997.900002.600006,1.299995,1.800003.699997,2.700012-.400002.599991-1,1-1.699997,1Z"/>
  <path class="cls-2" d="M97.299896,174.899994c-.699997,0-1.5-.399994-1.799995-1.099991-.5-1,0-2.199997.900002-2.699997l1.699997-.800003c23.800102-11.5,35.300095-18,44.700104-28.600006,4.199997-4.699997,7.5-10.699997,9.699997-17.299995.399994-1.099998,1.5-1.599998,2.5-1.300003,1,.300003,1.600006,1.5,1.300003,2.5-2.400009,7.099998-6,13.500008-10.5,18.599998-9.800003,11.199997-21.600006,17.900009-45.900101,29.600006l-1.700005.800003c-.299995.099991-.599998.199997-.900002.199997v.099991Z"/>
  <path class="cls-2" d="M157.399994,81.099899c-1.099991,0-2-.900002-2-2v-42.599998h-1.699997c-10.199997-.900002-20.300003-3-30.199997-6.200001-8.800003-2.9-17.300003-6.799999-25.199799-11.4l-2-1.200001c-.900002-.6-1.300003-1.799999-.700005-2.7.600006-.9,1.800003-1.3,2.700005-.7l1.999802,1.2c7.699997,4.500001,15.899994,8.3,24.399994,11.099999,9.5,3.1,19.300003,5.1,29.199997,5.900002l3.600006.299999c1,0,1.800003,1,1.800003,2v44.499996c0,1.100006-.900009,2-2,2v-.199997h.099991Z"/>
  <path class="cls-2" d="M37.299801,69.599899c-1.100002,0-2-.900002-2-2v-33c0-1,.799999-1.899998,1.799999-2l3.599998-.2999c6-.5,12.100002-1.4,17.900002-2.699999,3.299999-.800001,6.699997-1.700001,9.900002-2.700001,1.099998-.299999,2.199997.200001,2.5,1.300001.299995,1.099998-.200005,2.199999-1.300003,2.5-3.400002,1.099998-6.799999,2-10.299999,2.799999-6,1.400002-12.200001,2.299999-18.5,2.799999h-1.700001v31.2999c0,1.099998-.899998,2-2,2h.100002Z"/>
  <path class="cls-1" d="M37.300098,75.500099c3.976402,0,7.200001-3.223495,7.200001-7.199997,0-3.976402-3.223598-7.200001-7.200001-7.200001-3.976498,0-7.199999,3.223598-7.199999,7.200001,0,3.976501,3.223501,7.199997,7.199999,7.199997Z"/>
  <path class="cls-2" d="M37.300201,77.500099c-5,0-9.100002-4.099998-9.100002-9.199997s4.100002-9.200001,9.100002-9.200001,9.099998,4.099998,9.099998,9.200001-4.099998,9.199997-9.099998,9.199997ZM37.300201,63.2001c-2.800003,0-5.100002,2.299999-5.100002,5.200001s2.299999,5.199997,5.100002,5.199997,5.199997-2.299995,5.199997-5.199997-2.299999-5.200001-5.199997-5.200001Z"/>
  <path class="cls-1" d="M37.300098,115.199997c3.976402,0,7.200001-3.223999,7.200001-7.199997s-3.223598-7.199997-7.200001-7.199997c-3.976498,0-7.199999,3.223999-7.199999,7.199997s3.223501,7.199997,7.199999,7.199997Z"/>
  <path class="cls-2" d="M37.300201,117.199997c-5,0-9.100002-4.099998-9.100002-9.199997s4.100002-9.199997,9.100002-9.199997,9.099998,4.099998,9.099998,9.199997-4.099998,9.199997-9.099998,9.199997ZM37.300201,102.900002c-2.800003,0-5.100002,2.299995-5.100002,5.199997s2.299999,5.200005,5.100002,5.200005,5.199997-2.300003,5.199997-5.200005-2.299999-5.199997-5.199997-5.199997Z"/>
  <path class="cls-1" d="M157.399994,87.599899c3.921005,0,7.100006-3.178802,7.100006-7.099998s-3.179001-7.099998-7.100006-7.099998-7.099991,3.178795-7.099991,7.099998,3.179001,7.099998,7.099991,7.099998Z"/>
  <path class="cls-2" d="M157.399994,89.599998c-5.099991,0-9.099991-4.099998-9.099991-9.199997s4.099991-9.200005,9.099991-9.200005,9.100006,4.100006,9.100006,9.200005-4.100006,9.199997-9.100006,9.199997ZM157.399994,75.300003c-2.799988,0-5.099991,2.299995-5.099991,5.199997s2.300003,5.199997,5.099991,5.199997c2.800003,0,5.100006-2.299995,5.100006-5.199997s-2.300003-5.199997-5.100006-5.199997Z"/>
  <path class="cls-1" d="M154.399994,132.100006c3.921005,0,7.100006-3.179001,7.100006-7.100006s-3.179001-7.099998-7.100006-7.099998-7.099991,3.179001-7.099991,7.099998,3.179001,7.100006,7.099991,7.100006Z"/>
  <path class="cls-2" d="M154.399994,134.199997c-5.099991,0-9.099991-4.099991-9.099991-9.199997s4.099991-9.199997,9.099991-9.199997,9.100006,4.099998,9.100006,9.199997-4.100006,9.199997-9.100006,9.199997ZM154.399994,119.900002c-2.799988,0-5.099991,2.299995-5.099991,5.199997s2.300003,5.099998,5.099991,5.099998c2.800003,0,5.100006-2.299995,5.100006-5.199997s-2.300003-5.199997-5.100006-5.099998Z"/>
  <path class="cls-1" d="M70.499901,166.600006c3.921196,0,7.099998-3.179001,7.099998-7.100006s-3.178802-7.100006-7.099998-7.100006-7.100002,3.179001-7.100002,7.100006,3.178799,7.100006,7.100002,7.100006Z"/>
  <path class="cls-2" d="M70.499802,168.600006c-5.099998,0-9.200001-4.100006-9.200001-9.100006s4.100002-9.100006,9.200001-9.100006,9.199997,4.100006,9.199997,9.100006-4.099998,9.100006-9.199997,9.100006ZM70.499802,154.300003c-2.800003,0-5.200005,2.300003-5.200005,5.099991,0,2.800003,2.300003,5.100006,5.200005,5.100006s5.199997-2.300003,5.199997-5.100006c0-2.799988-2.299995-5.099991-5.199997-5.099991Z"/>
  <path class="cls-1" d="M97.300201,180.399994c3.920799,0,7.0998-3.179001,7.0998-7.099991s-3.179001-7.100006-7.0998-7.100006c-3.921204,0-7.099998,3.179001-7.099998,7.100006s3.178795,7.099991,7.099998,7.099991Z"/>
  <path class="cls-2" d="M97.300102,182.399994c-5.099998,0-9.200005-4.099991-9.200005-9.099991s4.100006-9.100006,9.200005-9.100006c5.099899,0,9.199898,4.100006,9.199898,9.100006s-4.099998,9.099991-9.199898,9.099991ZM97.300102,168.100006c-2.800003,0-5.200005,2.299988-5.200005,5.099991s2.300003,5.100006,5.200005,5.100006c2.899895,0,5.199898-2.300003,5.199898-5.100006s-2.300003-5.099991-5.199898-5.099991Z"/>
  <path class="cls-1" d="M70.499802,36.000099c3.976501,0,7.199997-3.223598,7.199997-7.199999,0-3.9765-3.223495-7.200001-7.199997-7.200001-3.976402,0-7.200001,3.223501-7.200001,7.200001,0,3.9764,3.223598,7.199999,7.200001,7.199999Z"/>
  <path class="cls-2" d="M70.499802,38c-5.099998,0-9.200001-4.099998-9.200001-9.1s4.100002-9.1,9.200001-9.1,9.199997,4.1,9.199997,9.1-4.099998,9.1-9.199997,9.1ZM70.499802,23.6c-2.800003,0-5.200005,2.3001-5.200005,5.1001s2.300003,5.200001,5.200005,5.200001,5.199997-2.3001,5.199997-5.100101-2.299995-5.099998-5.199997-5.199999Z"/>
  <path class="cls-1" d="M97.300102,23.1c3.976898,0,7.199898-3.2236,7.199898-7.200001,0-3.9765-3.223-7.200049-7.199898-7.200049-3.976402,0-7.200005,3.22355-7.200005,7.200049,0,3.9764,3.223602,7.200001,7.200005,7.200001Z"/>
  <path class="cls-2" d="M97.300102,25c-5.099998,0-9.200005-4.1-9.200005-9.1s4.100006-9.09995,9.200005-9.09995c5.099899,0,9.199898,4.09995,9.199898,9.09995s-4.099998,9.1-9.199898,9.1ZM97.300102,10.7c-2.800003,0-5.200005,2.3-5.200005,5.2s2.300003,5.1,5.200005,5.1c2.899895,0,5.199898-2.299999,5.199898-5.1s-2.300003-5.099999-5.199898-5.2Z"/>
</svg>