<?xml version="1.0" encoding="UTF-8"?><svg id="Security_Networking" xmlns="http://www.w3.org/2000/svg" viewBox="0 0 192 192"><defs><style>.cls-1{fill:#fff;}</style></defs><path class="cls-1" d="M158.86,31.57l-3.72-.29c-19.71-1.57-39.1-7.71-56.06-17.75l-2.06-1.22c-.63-.37-1.41-.37-2.04,0l-2.06,1.22c-17.21,10.19-36.08,16.16-56.06,17.75l-3.72.29c-1.04.08-1.84.95-1.84,1.99v75.88c0,14.13,5.28,28.57,14.13,38.62,10.27,11.67,22.55,18.65,47.96,30.87l1.75.84c.27.13.57.2.87.2s.59-.07.87-.2l1.75-.84c25.41-12.22,37.69-19.21,47.95-30.87,8.85-10.04,14.13-24.48,14.13-38.62V33.57c0-1.04-.8-1.91-1.84-1.99ZM156.7,109.44c0,13.19-4.91,26.64-13.14,35.98-9.8,11.14-21.79,17.94-46.69,29.91l-.88.43-.88-.43c-24.9-11.97-36.89-18.77-46.69-29.91-8.22-9.34-13.13-22.79-13.13-35.98V35.42l1.88-.15c20.6-1.64,40.04-7.8,57.79-18.3l1.04-.62,1.04.62c17.49,10.35,37.47,16.68,57.79,18.3l1.88.15v74.03Z"/><polygon class="cls-1" points="132.98 88.69 132.98 75.3 132.97 75.3 112.14 75.3 112.14 88.69 132.97 88.69 132.98 88.69"/><polygon class="cls-1" points="106.42 107.8 106.42 94.41 85.58 94.41 85.58 107.8 85.58 107.8 106.42 107.8 106.42 107.8"/><path class="cls-1" d="M132.97,67.41c0-6.2-5.03-11.23-11.23-11.23h-9.61v13.4h20.84v-2.17Z"/><polygon class="cls-1" points="106.42 56.19 106.42 56.18 85.58 56.18 85.58 56.19 85.58 69.58 106.42 69.58 106.42 56.19"/><rect class="cls-1" x="59.02" y="75.3" width="20.84" height="13.39"/><path class="cls-1" d="M132.97,96.58v-2.17h-20.84v13.39h9.61c6.2,0,11.23-5.03,11.23-11.23Z"/><path class="cls-1" d="M79.86,107.8v-13.39h-20.84v2.17c0,6.2,5.03,11.23,11.23,11.23h9.61Z"/><path class="cls-1" d="M79.86,56.18h-9.61c-6.2,0-11.23,5.03-11.23,11.23v2.17h20.84v-13.4Z"/><path class="cls-1" d="M56.31,125.16l-1.25-.3c-1.21-.28-2.22-.73-2.2-1.73,0-.9.79-1.56,2.23-1.56,1.06,0,1.81.36,2.16,1.01.24.44.71.72,1.21.72h0c1.06,0,1.78-1.17,1.22-2.06-.82-1.31-2.45-2.12-4.58-2.12-3.05,0-5.28,1.68-5.27,4.21,0,2.05,1.44,3.23,3.79,3.79l1.51.38c1.51.37,2.36.8,2.36,1.74,0,1.02-.97,1.71-2.47,1.71-1.19,0-2.11-.43-2.51-1.27-.24-.5-.72-.83-1.27-.83h-.09c-.98,0-1.69,1.01-1.3,1.91.78,1.75,2.64,2.65,5.2,2.65,3.4,0,5.39-1.62,5.4-4.17,0-2.32-1.75-3.55-4.17-4.09Z"/><path class="cls-1" d="M70.62,130.79h-5.25v-3.32h4.74c.67,0,1.21-.54,1.21-1.21h0c0-.67-.54-1.21-1.21-1.21h-4.74v-3.31h5.22c.67,0,1.21-.54,1.21-1.21s-.54-1.21-1.21-1.21h-7.08c-.59,0-1.08.48-1.08,1.08v11.76c0,.59.48,1.08,1.08,1.08h7.11c.67,0,1.21-.54,1.21-1.21s-.54-1.21-1.21-1.21Z"/><path class="cls-1" d="M84.62,123.85c0-2.76-1.83-4.54-4.98-4.54h-4.07c-.78,0-1.42.64-1.42,1.42v11.07c0,.78.64,1.42,1.42,1.42h.1c.78,0,1.42-.64,1.42-1.42v-3.51h2.15l2.23,4.18c.25.46.73.75,1.25.75,1.08,0,1.76-1.15,1.25-2.1l-1.81-3.3c1.58-.68,2.46-2.06,2.46-3.96ZM79.08,125.92h-2v-4.21h1.98c1.7,0,2.52.75,2.52,2.14s-.82,2.07-2.51,2.07Z"/><path class="cls-1" d="M96.78,119.31c-.67,0-1.25.43-1.46,1.06l-3.03,9.5h-.13l-3.02-9.5c-.2-.63-.79-1.06-1.46-1.06h0c-1.05,0-1.79,1.03-1.44,2.03l3.48,10.09c.37,1.07,1.38,1.79,2.51,1.79s2.14-.72,2.51-1.79l3.48-10.09c.34-.99-.4-2.03-1.44-2.03Z"/><path class="cls-1" d="M102.06,119.31c-.81,0-1.47.66-1.47,1.47v10.97c0,.81.66,1.47,1.47,1.47s1.47-.66,1.47-1.47v-10.97c0-.81-.66-1.47-1.47-1.47Z"/><path class="cls-1" d="M112.25,121.72c1.3,0,2.3.6,2.76,1.64.23.5.73.82,1.29.82h.03c1.04,0,1.76-1.1,1.29-2.03-.98-1.94-2.98-3.02-5.44-3.02-3.67,0-6.48,2.59-6.48,7.14s2.76,7.14,6.48,7.14c2.56,0,4.39-1.22,5.34-2.86.53-.92-.19-2.08-1.26-2.08-.54,0-1.04.29-1.27.77-.48,1-1.49,1.56-2.76,1.56-2.11,0-3.54-1.57-3.54-4.54s1.41-4.54,3.57-4.54Z"/><path class="cls-1" d="M128.51,130.79h-5.25v-3.32h4.74c.67,0,1.21-.54,1.21-1.21h0c0-.67-.54-1.21-1.21-1.21h-4.74v-3.31h5.22c.67,0,1.21-.54,1.21-1.21s-.54-1.21-1.21-1.21h-7.08c-.59,0-1.08.48-1.08,1.08v11.76c0,.59.48,1.08,1.08,1.08h7.11c.67,0,1.21-.54,1.21-1.21s-.54-1.21-1.21-1.21Z"/><path class="cls-1" d="M138.41,125.16l-1.25-.3c-1.21-.28-2.22-.73-2.2-1.73,0-.9.79-1.56,2.23-1.56,1.06,0,1.81.36,2.16,1.01.24.44.71.72,1.21.72h0c1.06,0,1.78-1.17,1.22-2.06-.82-1.31-2.45-2.12-4.58-2.12-3.05,0-5.28,1.68-5.27,4.21,0,2.05,1.44,3.23,3.79,3.79l1.51.38c1.51.37,2.36.8,2.36,1.74,0,1.02-.97,1.71-2.47,1.71-1.19,0-2.11-.43-2.51-1.27-.24-.5-.72-.83-1.27-.83h-.09c-.98,0-1.69,1.01-1.3,1.91.78,1.75,2.64,2.65,5.2,2.65,3.4,0,5.39-1.62,5.4-4.17,0-2.32-1.75-3.55-4.17-4.09Z"/></svg>