<?xml version="1.0" encoding="UTF-8"?>
<svg id="Security_Networking" data-name="Security Networking" xmlns="http://www.w3.org/2000/svg" viewBox="0 0 192 192">
  <defs>
    <style>
      .cls-1 {
        fill: #307fe2;
      }

      .cls-1, .cls-2, .cls-3 {
        stroke-linecap: round;
        stroke-linejoin: round;
        stroke-width: 4px;
      }

      .cls-1, .cls-3 {
        stroke: #464646;
      }

      .cls-2 {
        stroke: #464646;
      }

      .cls-2, .cls-3 {
        fill: none;
      }

      .cls-4 {
        fill: #fff;
      }
    </style>
  </defs>
  <g>
    <path class="cls-2" d="M58.57,54.54v75.69h75.69V54.54H58.57Z"/>
    <path class="cls-1" d="M80.22,65.06l-11.13,9.95v44.71h54.66v-54.66h-43.54Z"/>
    <line class="cls-2" x1="64.11" y1="54.54" x2="64.11" y2="45.18"/>
    <line class="cls-2" x1="128.73" y1="54.54" x2="128.73" y2="45.18"/>
    <line class="cls-2" x1="80.26" y1="54.54" x2="80.26" y2="45.18"/>
    <line class="cls-2" x1="96.42" y1="54.54" x2="96.42" y2="45.18"/>
    <line class="cls-2" x1="112.57" y1="54.54" x2="112.57" y2="45.18"/>
    <line class="cls-2" x1="64.11" y1="139.6" x2="64.11" y2="130.23"/>
    <line class="cls-2" x1="128.73" y1="139.6" x2="128.73" y2="130.23"/>
    <line class="cls-2" x1="80.26" y1="139.6" x2="80.26" y2="130.23"/>
    <line class="cls-2" x1="96.42" y1="139.6" x2="96.42" y2="130.23"/>
    <line class="cls-2" x1="112.57" y1="139.6" x2="112.57" y2="130.23"/>
    <line class="cls-2" x1="143.63" y1="124.72" x2="134.26" y2="124.72"/>
    <line class="cls-2" x1="143.63" y1="60.1" x2="134.26" y2="60.1"/>
    <line class="cls-2" x1="143.63" y1="108.56" x2="134.26" y2="108.56"/>
    <line class="cls-2" x1="143.63" y1="92.41" x2="134.26" y2="92.41"/>
    <line class="cls-2" x1="143.63" y1="76.25" x2="134.26" y2="76.25"/>
    <line class="cls-2" x1="58.48" y1="124.72" x2="49.11" y2="124.72"/>
    <line class="cls-2" x1="58.48" y1="60.1" x2="49.11" y2="60.1"/>
    <line class="cls-2" x1="58.48" y1="108.56" x2="49.11" y2="108.56"/>
    <line class="cls-2" x1="58.48" y1="92.41" x2="49.11" y2="92.41"/>
    <line class="cls-2" x1="58.48" y1="76.25" x2="49.11" y2="76.25"/>
  </g>
  <g>
    <path class="cls-4" d="M77.35,103.94l8.29-23.56c.68-1.92,2.5-3.21,4.54-3.21h0c2.04,0,3.86,1.29,4.54,3.21l8.31,23.56c.63,1.8-.7,3.68-2.6,3.68h0c-1.19,0-2.24-.76-2.62-1.88l-1.89-5.63h-11.45l-1.88,5.62c-.38,1.13-1.43,1.89-2.62,1.89h0c-1.9,0-3.24-1.88-2.61-3.68ZM94.42,95.68l-4.12-12.27h-.24l-4.12,12.27h8.48Z"/>
    <path class="cls-4" d="M110.35,107.61h0c-1.52,0-2.76-1.23-2.76-2.76v-24.94c0-1.52,1.23-2.76,2.76-2.76h0c1.52,0,2.76,1.23,2.76,2.76v24.94c0,1.52-1.23,2.76-2.76,2.76Z"/>
  </g>
  <path class="cls-3" d="M96,177.97l-1.75-.84c-25.15-12.09-37.28-18.97-47.33-30.39-8.54-9.7-13.63-23.65-13.63-37.3V33.57l3.72-.29c20.31-1.62,39.46-7.69,56.92-18.02l2.06-1.22,2.06,1.22c17.21,10.19,36.89,16.43,56.92,18.02l3.72.29v75.88c0,13.65-5.1,27.61-13.63,37.3-10.05,11.42-22.18,18.3-47.32,30.39l-1.75.84Z"/>
</svg>