<?xml version="1.0" encoding="UTF-8"?><svg id="Security_Networking" xmlns="http://www.w3.org/2000/svg" viewBox="0 0 192 192"><defs><style>.cls-1{fill:#3cb17e;stroke:#464646;stroke-linecap:round;stroke-linejoin:round;stroke-width:4px;}.cls-2{fill:#fff;}</style></defs><path class="cls-1" d="M96,177.97l-1.75-.84c-25.15-12.09-37.28-18.97-47.33-30.39-8.54-9.7-13.63-23.65-13.63-37.3V33.57l3.72-.29c20.31-1.62,39.46-7.69,56.92-18.02l2.06-1.22,2.06,1.22c17.21,10.19,36.89,16.43,56.92,18.02l3.72.29v75.88c0,13.65-5.1,27.61-13.63,37.3-10.05,11.42-22.18,18.3-47.32,30.39l-1.75.84Z"/><polygon class="cls-2" points="132.97 75.3 132.97 75.3 112.14 75.3 112.14 75.3 112.14 88.69 132.97 88.69 132.98 88.69 132.98 75.3 132.97 75.3"/><polygon class="cls-2" points="85.58 107.8 85.58 107.8 106.42 107.8 106.42 107.8 106.42 94.41 85.58 94.41 85.58 107.8"/><path class="cls-2" d="M132.97,67.41c0-6.2-5.03-11.23-11.23-11.23h-9.61v13.4h20.84v-2.17Z"/><polygon class="cls-2" points="85.58 56.19 85.58 69.58 85.58 69.58 106.42 69.58 106.42 69.58 106.42 56.19 106.42 56.18 85.58 56.18 85.58 56.19"/><polygon class="cls-2" points="59.02 75.3 59.02 75.3 59.02 88.69 59.02 88.69 79.86 88.69 79.86 75.3 79.86 75.3 59.02 75.3 59.02 75.3"/><path class="cls-2" d="M112.14,107.8h9.61c6.2,0,11.23-5.03,11.23-11.23v-2.17h-20.84v13.39Z"/><path class="cls-2" d="M59.02,96.57c0,6.2,5.03,11.23,11.23,11.23h9.61s0-13.39,0-13.39h-20.84v2.17Z"/><path class="cls-2" d="M59.02,67.41v2.17h20.84v-13.4h-9.61c-6.2,0-11.23,5.03-11.23,11.23Z"/><path class="cls-2" d="M55.09,121.58c-1.44,0-2.23.66-2.23,1.56-.02,1,.99,1.45,2.2,1.73l1.25.3c2.42.54,4.16,1.77,4.17,4.09,0,2.55-2,4.17-5.4,4.17-2.57,0-4.43-.9-5.2-2.65-.4-.9.31-1.91,1.3-1.91h.09c.55,0,1.03.33,1.27.83.4.84,1.33,1.27,2.51,1.27,1.49,0,2.46-.69,2.47-1.71,0-.94-.85-1.37-2.36-1.74l-1.51-.38c-2.35-.56-3.8-1.74-3.79-3.79-.01-2.53,2.22-4.21,5.27-4.21,2.13,0,3.76.81,4.58,2.13.56.9-.16,2.07-1.22,2.07h0c-.51,0-.97-.28-1.21-.72-.35-.65-1.1-1.01-2.16-1.01Z"/><path class="cls-2" d="M62.44,120.39c0-.59.48-1.08,1.08-1.08h7.08c.67,0,1.21.54,1.21,1.21h0c0,.67-.54,1.21-1.21,1.21h-5.22v3.31h4.74c.67,0,1.21.54,1.21,1.21h0c0,.67-.54,1.21-1.21,1.21h-4.74v3.32h5.25c.67,0,1.21.54,1.21,1.21h0c0,.67-.54,1.21-1.21,1.21h-7.11c-.59,0-1.08-.48-1.08-1.08v-11.76Z"/><path class="cls-2" d="M74.14,120.73c0-.78.64-1.42,1.42-1.42h4.07c3.16,0,4.98,1.78,4.98,4.54,0,1.9-.88,3.28-2.46,3.96l1.81,3.3c.52.95-.17,2.1-1.25,2.1h0c-.52,0-1.01-.29-1.25-.75l-2.23-4.18h-2.15v3.51c0,.78-.64,1.42-1.42,1.42h-.1c-.78,0-1.42-.64-1.42-1.42v-11.07ZM79.08,125.92c1.68,0,2.51-.69,2.51-2.07s-.82-2.14-2.52-2.14h-1.98v4.21h2Z"/><path class="cls-2" d="M92.17,129.88h.13l3.03-9.5c.2-.63.79-1.06,1.46-1.06h0c1.05,0,1.79,1.03,1.44,2.03l-3.48,10.09c-.37,1.07-1.38,1.79-2.51,1.79h0c-1.13,0-2.14-.72-2.51-1.79l-3.48-10.09c-.34-.99.39-2.03,1.44-2.03h0c.67,0,1.25.43,1.46,1.06l3.02,9.5Z"/><path class="cls-2" d="M102.06,133.22h0c-.81,0-1.47-.66-1.47-1.47v-10.97c0-.81.66-1.47,1.47-1.47h0c.81,0,1.47.66,1.47,1.47v10.97c0,.81-.66,1.47-1.47,1.47Z"/><path class="cls-2" d="M116.3,124.18c-.55,0-1.06-.32-1.29-.82-.46-1.03-1.46-1.64-2.76-1.64-2.15,0-3.57,1.65-3.57,4.54s1.43,4.54,3.55,4.54c1.27,0,2.28-.56,2.76-1.57.23-.48.73-.78,1.27-.77h0c1.07,0,1.79,1.16,1.26,2.08-.95,1.64-2.78,2.86-5.34,2.86-3.72,0-6.48-2.61-6.48-7.14s2.8-7.14,6.48-7.14c2.46,0,4.46,1.08,5.44,3.02.47.93-.25,2.03-1.29,2.03h-.03Z"/><path class="cls-2" d="M120.32,120.39c0-.59.48-1.08,1.08-1.08h7.08c.67,0,1.21.54,1.21,1.21h0c0,.67-.54,1.21-1.21,1.21h-5.22v3.31h4.74c.67,0,1.21.54,1.21,1.21h0c0,.67-.54,1.21-1.21,1.21h-4.74v3.32h5.25c.67,0,1.21.54,1.21,1.21h0c0,.67-.54,1.21-1.21,1.21h-7.11c-.59,0-1.08-.48-1.08-1.08v-11.76Z"/><path class="cls-2" d="M137.2,121.58c-1.44,0-2.23.66-2.23,1.56-.02,1,.99,1.45,2.2,1.73l1.25.3c2.42.54,4.16,1.77,4.17,4.09,0,2.55-2,4.17-5.4,4.17-2.57,0-4.43-.9-5.2-2.65-.4-.9.31-1.91,1.3-1.91h.09c.55,0,1.03.33,1.27.83.4.84,1.33,1.27,2.51,1.27,1.49,0,2.46-.69,2.47-1.71,0-.94-.85-1.37-2.36-1.74l-1.51-.38c-2.35-.56-3.8-1.74-3.79-3.79-.01-2.53,2.22-4.21,5.27-4.21,2.13,0,3.76.81,4.58,2.13.56.9-.16,2.07-1.22,2.07h0c-.51,0-.97-.28-1.21-.72-.35-.65-1.1-1.01-2.16-1.01Z"/></svg>