<?xml version="1.0" encoding="UTF-8"?>
<svg xmlns="http://www.w3.org/2000/svg" viewBox="0 0 192.508254 192.508254">
  <defs>
    <style>
      .cls-1 {
        fill: none;
      }

      .cls-2 {
        fill: #da291c;
      }

      .cls-3 {
        fill: #464646;
      }
    </style>
  </defs>
  <g id="Export">
    <path class="cls-3" d="M96.264127,180.212889c-.300003,0-.589996-.070007-.870003-.199997l-1.75-.839996c-25.409996-12.210007-37.689999-19.199997-47.959999-30.869995-8.849998-10.050003-14.130001-24.489998-14.130001-38.619995V33.812887c0-1.040001.799999-1.91,1.84-1.99l3.720001-.290001c19.989998-1.59,38.849998-7.57,56.060005-17.75l2.059998-1.22c.629997-.37,1.410004-.37,2.040001,0l2.059998,1.22c16.959999,10.039999,36.349998,16.18,56.060005,17.75l3.720001.290001c1.039993.08,1.839996.949999,1.839996,1.99v75.879997c0,14.139999-5.279999,28.580002-14.130005,38.619995-10.259995,11.660004-22.540001,18.649994-47.949997,30.869995l-1.75.839996c-.269997.130005-.57.199997-.870003.199997l.010002-.009979ZM35.564127,35.662886v74.029999c0,13.190002,4.91,26.639999,13.130001,35.979996,9.799999,11.139999,21.790001,17.940002,46.689995,29.910004l.879997.429993.879997-.429993c24.900002-11.970001,36.880005-18.770004,46.690002-29.910004,8.229996-9.330002,13.139999-22.779999,13.139999-35.979996V35.662886l-1.869995-.150002c-20.320007-1.619999-40.300003-7.940001-57.790001-18.299999l-1.040001-.620001-1.040001.620001c-17.739998,10.5-37.18,16.66-57.790001,18.299999,0,0-1.880001.150002-1.879993.150002Z"/>
    <g>
      <path class="cls-3" d="M114.393034,104.827848c-1.051758,0-1.933594-.821289-1.995117-1.884766-.348633-6.049805-3.771484-10.988281-8.932617-12.88916-1.036133-.381836-1.567383-1.531738-1.185547-2.568359.381836-1.036133,1.529297-1.567871,2.568359-1.185547,6.677734,2.459961,11.101562,8.748535,11.543945,16.412598.063477,1.102539-.779297,2.047852-1.881836,2.112305-.039062.001953-.078125.00293-.117188.00293Z"/>
      <path class="cls-3" d="M92.343717,124.385466c-.667969,0-1.321289-.333984-1.700195-.943359l-.459961-.738281c-5.806641-9.31543-13.033203-20.90918-4.119629-31.583496,3.169434-3.797852,7.479492-5.88623,12.142578-5.88623h.070312c1.104492.004883,1.996094.904297,1.991211,2.008789s-.900391,1.988281-2.008789,1.991211c-3.529297-.005859-6.682129,1.522949-9.124512,4.449707-7.058105,8.45166-1.210938,17.83252,4.443359,26.903809l.461914.741211c.583496.9375.296387,2.170898-.641602,2.754883-.329102.204102-.693848.301758-1.054688.301758Z"/>
      <path class="cls-3" d="M79.238737,116.260466c-.765625,0-1.496094-.442383-1.827637-1.186523-1.316895-2.955078-2.132812-5.716797-2.494141-8.443359-.496582-3.829102-.134766-7.818359,1.04541-11.540039.333496-1.052734,1.455566-1.636719,2.510742-1.301758,1.052734.333496,1.635742,1.45752,1.302246,2.510742-1.004883,3.169922-1.313477,6.5625-.892578,9.811523.30957,2.333984,1.023438,4.735352,2.181641,7.333984.449707,1.009766-.003906,2.191406-1.012695,2.641602-.26416.117188-.541016.173828-.812988.173828Z"/>
      <path class="cls-3" d="M118.260221,93.360075c-.681641,0-1.345703-.348633-1.719727-.976562-.817383-1.371094-1.780273-2.653809-2.862305-3.812012-3.87793-4.152344-9.24707-6.622559-14.730469-6.777832-7.345703-.212891-13.250977,3.001465-16.648926,9.041504-.541992.962402-1.762207,1.303223-2.723633.762695-.962891-.541504-1.304199-1.76123-.762695-2.723633,4.102539-7.291016,11.467285-11.325195,20.249512-11.078613,6.543945.185059,12.9375,3.117676,17.540039,8.04541,1.275391,1.366699,2.411133,2.878906,3.374023,4.494629.56543.94873.254883,2.17627-.693359,2.741699-.321289.191406-.673828.282715-1.022461.282715Z"/>
      <path class="cls-3" d="M106.319791,124.752653c-.261719,0-.527344-.051758-.783203-.161133-8.282227-3.52832-14.385742-11.661133-15.549316-20.719727-.083008-.648438-.124512-1.242188-.125977-1.816406-.010254-3.271484,1.550293-6.271484,4.175293-8.024902,1.291992-.86377,2.807617-1.380371,4.380859-1.493652,1.767578-.125977,3.496094.236816,5.000977,1.050293,2.098633,1.133789,3.65332,3.065918,4.37793,5.439941l.088867.291992c1.520508,4.991211,2.719727,8.047852,6.542969,8.413086,1.509766.147461,3.077148-.448242,3.967773-1.512695,1.462891-1.748047,1.582031-4.711914.355469-8.811523-.316406-1.057617.28418-2.172363,1.342773-2.489258,1.058594-.3125,2.171875.283691,2.489258,1.342773,1.636719,5.467773,1.259766,9.681641-1.119141,12.524414-1.737305,2.078125-4.586914,3.196289-7.416016,2.928711-6.765625-.646484-8.628906-6.763672-9.989258-11.229492l-.088867-.290039c-.415039-1.361328-1.287109-2.458008-2.454102-3.088867-.834961-.452148-1.802734-.654297-2.811523-.580078-.895508.064453-1.71875.34375-2.445801.830078-1.507324,1.006836-2.403809,2.758789-2.397461,4.686523.000977.407227.031738.837891.09375,1.319336.986328,7.678711,6.147949,14.566406,13.149902,17.549805,1.015625.432617,1.488281,1.607422,1.055664,2.624023-.324219.759766-1.063477,1.216797-1.84082,1.216797Z"/>
      <path class="cls-3" d="M115.10983,119.291716c-.063477,0-.126953,0-.191406-.000977-9.289062-.119141-17.114258-7.751953-17.817383-17.375977-.080078-1.101562.748047-2.05957,1.849609-2.140625,1.102539-.068359,2.05957.748047,2.140625,1.849609.551758,7.571289,6.648438,13.574219,13.87793,13.666992.891602.012695,1.749023-.079102,2.602539-.266602,1.074219-.241211,2.145508.443359,2.382812,1.523438.237305,1.078125-.444336,2.145508-1.523438,2.382812-1.088867.240234-2.206055.361328-3.321289.361328Z"/>
    </g>
    <path class="cls-3" d="M131.741377,134.588332H51.889814c-.605469,0-1.178711-.274414-1.557617-.746094-.379883-.47168-.525391-1.089844-.396484-1.680664l13.645508-62.412598c.201172-.917969,1.013672-1.572754,1.954102-1.572754h79.06543c.601562,0,1.170898.270508,1.550781.736328.378906.466309.529297,1.078613.408203,1.66748l-12.859375,62.411621c-.191406.929688-1.009766,1.59668-1.958984,1.59668ZM54.374189,130.588332h75.737305l12.035156-58.412109h-75.000977l-12.771484,58.412109Z"/>
    <g>
      <polygon class="cls-2" points="51.889504 132.587956 51.889504 52.950562 75.629429 52.950562 82.10233 59.007416 131.741215 59.007416 131.741215 70.175564 65.535519 70.176091 51.889504 132.587956"/>
      <path class="cls-3" d="M51.891767,134.588332c-.072266,0-.144531-.003906-.216797-.011719-1.015625-.109375-1.785156-.966797-1.785156-1.988281V52.950637c0-1.104492.895508-2,2-2h23.739258c.507812,0,.996094.192871,1.366211.539551l5.897461,5.51709h48.848633c1.104492,0,2,.895508,2,2v11.168457c0,1.104492-.895508,2-2,2l-64.595703.000488-13.301758,60.838867c-.203125.926758-1.023438,1.573242-1.952148,1.573242ZM53.889814,54.950637v59.125977l9.691406-44.327637c.201172-.917969,1.013672-1.572754,1.954102-1.572754l64.206055-.000488v-7.168457h-47.638672c-.507812,0-.996094-.192871-1.366211-.539551l-5.897461-5.51709h-20.949219Z"/>
    </g>
  </g>
  <g id="Container">
    <rect class="cls-1" width="192" height="192"/>
  </g>
</svg>