<?xml version="1.0" encoding="UTF-8"?><svg id="Security_Networking" xmlns="http://www.w3.org/2000/svg" viewBox="0 0 192 192"><defs><style>.cls-1{fill:none;}.cls-1,.cls-2{stroke:#464646;stroke-linecap:round;stroke-linejoin:round;stroke-width:4px;}.cls-2{fill:#307fe2;}</style></defs><path class="cls-1" d="M147.89,71.61c4.8,2.42,9.3,5.64,13.3,9.64,20.26,20.26,20.26,53.12,0,73.38s-53.12,20.26-73.38,0c-5.07-5.07-8.86-10.92-11.4-17.16"/><path class="cls-1" d="M96.05,161.28c-20.14,13.3-47.51,11.08-65.24-6.65-20.26-20.26-20.26-53.12,0-73.38,20.26-20.26,53.12-20.26,73.38,0"/><path class="cls-1" d="M44.17,71.59c.59-12.44,5.64-24.72,15.14-34.22,20.26-20.26,53.12-20.26,73.38,0,20.26,20.26,20.26,53.12,0,73.38"/><circle class="cls-2" cx="96" cy="70.44" r="17.75"/><circle class="cls-2" cx="66.54" cy="121.3" r="17.75"/><circle class="cls-2" cx="125.46" cy="121.3" r="17.75"/></svg>