<?xml version="1.0" encoding="UTF-8"?>
<svg xmlns="http://www.w3.org/2000/svg" viewBox="0 0 192.508254 192.508254">
  <defs>
    <style>
      .cls-1 {
        fill: none;
      }

      .cls-2 {
        fill: #da291c;
      }

      .cls-3 {
        fill: #464646;
      }

      .cls-4 {
        fill: #fff;
      }
    </style>
  </defs>
  <g id="Export">
    <g>
      <path class="cls-2" d="M159.726098,57.525114c-.398078-23.203983-19.232525-41.624846-42.537729-41.624846-15.370886,0-28.832826,8.137286-36.338577,20.33299-.386948.628732-1.109941.94619-1.8365.815249-1.740998-.313764-3.532494-.481613-5.363924-.481613-13.057915,0-24.178923,8.275629-28.415387,19.866751-.244415.668729-.893638,1.085433-1.603148,1.025988-.810302-.06789-1.629248-.105081-2.457173-.105081-16.706604,0-30.25,13.543396-30.25,30.25,0,14.717653,10.512738,26.974203,24.437328,29.685434l-.003307-1.789987c0-33.5224,27.1427-60.697693,60.625-60.697693s60.625,27.175293,60.625,60.697693c0,.616023-.028198,1.225089-.046378,1.836723,14.052185-2.609377,24.695486-14.923948,24.695486-29.732169,0-13.356481-8.458095-24.604529-20.458595-28.609738-.249539-.083285-1.031354-.411245-1.072097-1.469702Z"/>
      <path class="cls-3" d="M156.561689,119.336379c-.472656,0-.935547-.167969-1.300781-.480469-.458984-.393555-.71582-.972656-.698242-1.577148l.016602-.513672c.013672-.419922.02832-.84082.02832-1.264648,0-32.366211-26.298828-58.698242-58.625-58.698242s-58.625,26.332031-58.625,58.698242l.00293,1.786133c.000977.597656-.265625,1.165039-.726562,1.544922-.459961.381836-1.066406.540039-1.655273.420898-15.097656-2.939453-26.054688-16.249023-26.054688-31.647949,0-17.782715,14.466797-32.25,32.25-32.25.748047,0,1.518555.028809,2.294922.085938,4.714844-12.499023,16.801758-20.873535,30.180664-20.873535,1.856445,0,3.732422.164062,5.577148.488281,8.214844-13.250488,22.394531-21.154785,37.961914-21.154785,24.456055,0,43.959961,18.992676,44.53125,43.294922,12.895508,4.44043,21.537109,16.621582,21.537109,30.40918,0,15.533691-11.073242,28.864746-26.330078,31.69873-.121094.022461-.244141.033203-.365234.033203ZM95.982588,52.802199c34.301758,0,62.250977,27.755859,62.621094,62.011719,12.104492-3.359375,20.65332-14.433594,20.65332-27.209473,0-12.166504-7.672852-22.901367-19.091797-26.712891-1.443359-.480957-2.37793-1.741211-2.4375-3.288574-.000977-.014648-.000977-.028809-.001953-.043457-.380859-22.23877-18.186523-39.65918-40.537109-39.65918-14.21875,0-27.166992,7.245117-34.635742,19.381348-.820312,1.333008-2.349609,2.010742-3.895508,1.734863-1.65625-.29834-3.34082-.449707-5.007812-.449707-11.816406,0-22.480469,7.456055-26.537109,18.553223-.550781,1.507324-2.047852,2.46875-3.648438,2.33252-.776367-.064941-1.546875-.098145-2.290039-.098145-15.577148,0-28.25,12.672852-28.25,28.25,0,12.664551,8.460938,23.716309,20.438477,27.149902.400391-34.232422,28.336914-61.952148,62.620117-61.952148Z"/>
    </g>
    <path class="cls-3" d="M95.982588,178.197707c-34.53125,0-62.625-28.125977-62.625-62.697266,0-34.571777,28.09375-62.698242,62.625-62.698242s62.625,28.126465,62.625,62.698242c0,34.571289-28.09375,62.697266-62.625,62.697266ZM95.982588,56.802199c-32.326172,0-58.625,26.332031-58.625,58.698242s26.298828,58.697266,58.625,58.697266,58.625-26.331055,58.625-58.697266-26.298828-58.698242-58.625-58.698242Z"/>
    <path class="cls-2" d="M124.97966,122.703964l-.406657-.195194c-5.84424-2.809417-8.662952-4.40816-10.998324-7.061886-1.984485-2.25404-3.167276-5.495677-3.167276-8.6676v-17.630316l.864436-.067389c4.719543-.376448,9.169529-1.786966,13.226804-4.187403l.478693-.283498.478693.283498c3.999179,2.367904,8.572325,3.817927,13.226803,4.187403l.864436.067389v17.632639c0,3.171923-1.185116,6.415883-3.167277,8.6676-2.335373,2.653726-5.154085,4.252469-10.996,7.061886l-.406657.195194.002326-.002322Z"/>
    <path class="cls-3" d="M124.978681,124.706496c-.338867,0-.673828-.085938-.97168-.250977l-.296875-.142578c-6.108398-2.935547-9.074219-4.632812-11.636719-7.544922-2.295898-2.606445-3.666016-6.34082-3.666016-9.988281v-17.630859c0-1.044434.803711-1.912598,1.844727-1.994141l.864258-.067383c4.40625-.351562,8.567383-1.668457,12.363281-3.914551l.480469-.28418c.628906-.371094,1.407227-.371094,2.036133.000977l.478516.283203c3.742188,2.21582,8.018555,3.569824,12.366211,3.915039l.861328.066895c1.041016.081543,1.844727.949707,1.844727,1.994141v17.632812c0,3.647461-1.370117,7.381836-3.666016,9.989258-2.55957,2.90918-5.525391,4.606445-11.629883,7.542969l-.407227.195312c-.276367.132812-.572266.197266-.865234.197266ZM112.407392,90.982863v15.796875c0,2.702148.99707,5.448242,2.667969,7.345703,2.041992,2.320312,4.626953,3.810547,9.905273,6.360352,5.274414-2.549805,7.858398-4.040039,9.898438-6.357422,1.670898-1.898438,2.667969-4.644531,2.667969-7.34668v-15.799316c-4.408203-.485352-8.722656-1.876465-12.569336-4.054688-3.893555,2.20752-8.115234,3.569824-12.570312,4.055176Z"/>
    <path class="cls-4" d="M122.404463,110.961379c-.511719,0-1.023438-.195312-1.414062-.585938l-5.460938-5.460938c-.78125-.78125-.78125-2.046875,0-2.828125s2.046875-.78125,2.828125,0l4.046875,4.046875,9.192383-9.191406c.78125-.78125,2.046875-.78125,2.828125,0s.78125,2.046875,0,2.828125l-10.606445,10.605469c-.390625.390625-.902344.585938-1.414062.585938Z"/>
    <path class="cls-3" d="M125.088074,144.532654c-.548157,0-1.079102.070435-1.591003.19104l-4.405823-7.629578,7.729248-13.387634c.34021-.590942.345764-1.308472.03656-1.911255-.471191.23114-.95636.467346-1.473083.71582l-.406616.195251.002319-.00238-.406677-.19519c-.969177-.465881-1.848206-.89624-2.662537-1.305847l.868042,1.503601-7.151367,12.387695h-14.303711l-7.151367-12.387695,7.151367-12.387695h9.562317c-.312134-1.152527-.478333-2.350891-.478333-3.53949v-.46051h-9.118408l-4.393799-7.610168c1.183655-1.246582,1.915527-2.926331,1.915527-4.777039,0-3.831543-3.117188-6.94873-6.948242-6.94873-3.136597,0-5.791504,2.089539-6.652832,4.94873h-8.869141l-4.410889-7.623474c1.190674-1.247742,1.927002-2.932617,1.927002-4.789124,0-3.831543-3.117188-6.94873-6.949219-6.94873-3.831055,0-6.948242,3.117188-6.948242,6.94873,0,3.831055,3.117188,6.948242,6.948242,6.948242.53186,0,1.047852-.065552,1.545776-.17926l4.436829,7.668335-4.391052,7.605347c-.512085-.120605-1.043152-.191101-1.591553-.191101-3.831055,0-6.948242,3.117188-6.948242,6.948242s3.117188,6.948242,6.948242,6.948242c.54834,0,1.079407-.070435,1.591431-.19104l4.405273,7.630188-4.420288,7.651367c-.507385-.118286-1.033508-.187195-1.576416-.187195-3.831055,0-6.948242,3.117188-6.948242,6.948242,0,3.832031,3.117188,6.949219,6.948242,6.949219,3.832031,0,6.949219-3.117188,6.949219-6.949219,0-1.845032-.727783-3.52002-1.905457-4.765442l4.417603-7.646667h14.338623l7.729309,13.387695c.357422.619141,1.017578,1,1.732422,1h15.457336l4.407898,7.63324c-1.171021,1.244263-1.894531,2.914246-1.894531,4.753479,0,3.832031,3.117188,6.949219,6.948242,6.949219,3.832031,0,6.949219-3.117188,6.949219-6.949219,0-3.831055-3.117188-6.948242-6.949219-6.948242ZM90.673035,120.706482h-14.304688l-4.40686-7.633606c1.171448-1.244324,1.895142-2.914551,1.895142-4.754089,0-1.839478-.723694-3.509766-1.895081-4.754028l4.406799-7.633179h8.841309c.861328,2.859192,3.516235,4.94873,6.652832,4.94873.537598,0,1.058838-.067383,1.561646-.183472l4.400269,7.621948-7.151367,12.387695ZM91.862488,90.982849c1.625977,0,2.948242,1.322754,2.948242,2.94873s-1.322266,2.94873-2.948242,2.94873-2.949219-1.322754-2.949219-2.94873,1.323242-2.94873,2.949219-2.94873ZM63.959167,79.518982c0-1.625977,1.322266-2.94873,2.948242-2.94873s2.949219,1.322754,2.949219,2.94873c0,1.625488-1.323242,2.948242-2.949219,2.948242s-2.948242-1.322754-2.948242-2.948242ZM63.959167,108.318787c0-1.625977,1.322266-2.948242,2.948242-2.948242s2.949219,1.322266,2.949219,2.948242-1.323242,2.948242-2.949219,2.948242-2.948242-1.322266-2.948242-2.948242ZM66.90741,140.06781c-1.625977,0-2.948242-1.323242-2.948242-2.949219s1.322266-2.948242,2.948242-2.948242,2.949219,1.322266,2.949219,2.948242-1.323242,2.949219-2.949219,2.949219ZM125.088074,154.430115c-1.625977,0-2.948242-1.323242-2.948242-2.949219s1.322266-2.948242,2.948242-2.948242,2.949219,1.322266,2.949219,2.948242-1.323242,2.949219-2.949219,2.949219Z"/>
  </g>
  <g id="Container">
    <rect class="cls-1" width="192" height="192"/>
  </g>
</svg>