<?xml version="1.0" encoding="UTF-8"?><svg id="Security_Networking" xmlns="http://www.w3.org/2000/svg" viewBox="0 0 192 192"><defs><style>.cls-1{fill:#fff;}</style></defs><path class="cls-1" d="M182.9,83.19c-.07-.33-.12-.57-.12-.82,0-.15-.02-.3-.05-.44l-.07-.3c-.12-.52-.23-1.03-.36-1.54-2.7-10.51-9.6-18.21-20.5-22.88-.03-.01-.05-.02-.08-.03-.02-3.36-.36-6.78-.99-9.91-1.96-9.11-6.96-17.04-14.4-22.89-10.19-8.54-22.31-11.89-36.06-9.96-13.03,2.21-23.4,9.03-30.84,20.28-.02,0-.05,0-.08-.01-3.82-.63-7.83-.42-12.25.65-11,2.56-18.98,9.13-23.67,19.43-.03.05-.05.1-.08.15l-1.18.12c-2.92.29-5.95.59-8.81,1.14-.04,0-.09.02-.13.03-11.57,3.07-20.55,12.23-23.43,23.9-1.5,6.11-1.15,12.33,1.02,17.98,3.86,10.43,12.07,17.94,22.65,20.84.44,8.15,2.42,16.04,5.93,23.44,10.34,21.72,32.55,35.76,56.59,35.76,16.4,0,31.9-6.29,43.65-17.7,11.36-11.04,18.01-25.71,18.87-41.45,10.65-2.84,18.95-10.27,22.86-20.54.02-.05.04-.11.05-.16.62-2.18,1.31-4.76,1.65-7.36.01-.09.02-.17.02-.26v-5.83c0-.67-.11-1.2-.2-1.64ZM136.86,157.56c-11,10.69-25.51,16.57-40.86,16.57-22.5,0-43.3-13.14-52.97-33.48-3.49-7.36-5.38-15.22-5.63-23.36-.02-.6-.03-1.19-.03-1.85,0-1.04.03-2.09.09-3.14.17-3.14.59-6.27,1.27-9.34,2.11-9.74,6.65-18.58,12.96-25.85,8.1-9.35,19.12-16.11,31.64-18.86,4.15-.92,8.42-1.38,12.68-1.38,8.81,0,17.29,1.91,25.18,5.68,1.27.6,2.51,1.25,3.72,1.94,18.17,10.32,29.71,29.89,29.73,51.02,0,.61,0,1.23-.03,1.83h0c-.47,15.28-6.77,29.56-17.74,40.22ZM179.1,90.52c-.31,2.27-.92,4.59-1.49,6.57-3.31,8.63-10.15,14.99-18.98,17.71,0-.27-.02-.55-.02-.82,0-.36-.02-.72-.03-1.08-.02-.38-.04-.77-.06-1.15-.02-.36-.04-.71-.07-1.07-.03-.38-.07-.77-.11-1.15-.03-.35-.07-.7-.11-1.06-.04-.38-.1-.77-.15-1.15-.05-.35-.09-.69-.14-1.04-.06-.38-.12-.76-.19-1.15-.06-.34-.11-.68-.18-1.02-.07-.38-.15-.76-.23-1.14-.07-.34-.14-.67-.21-1.01-.09-.38-.18-.76-.27-1.14-.08-.33-.16-.66-.24-.99-.1-.38-.21-.76-.31-1.14-.09-.32-.18-.65-.27-.97-.11-.38-.23-.75-.35-1.13-.1-.32-.2-.63-.31-.95-.13-.38-.26-.75-.4-1.13-.11-.31-.22-.62-.33-.93-.14-.37-.29-.74-.44-1.12-.12-.3-.24-.61-.36-.91-.15-.37-.32-.74-.48-1.11-.13-.3-.26-.59-.39-.89-.17-.37-.34-.73-.52-1.09-.14-.29-.28-.58-.42-.87-.18-.36-.37-.72-.56-1.08-.15-.28-.29-.57-.45-.85-.19-.36-.4-.71-.6-1.06-.16-.28-.31-.56-.47-.83-.21-.35-.42-.7-.63-1.04-.17-.27-.33-.54-.5-.81-.22-.35-.45-.69-.68-1.03-.17-.26-.34-.52-.52-.78-.23-.34-.48-.68-.72-1.01-.18-.25-.36-.51-.54-.76-.24-.33-.5-.66-.75-.98-.19-.25-.38-.5-.57-.75-.26-.32-.52-.64-.78-.96-.2-.24-.4-.49-.6-.73-.27-.32-.54-.62-.82-.93-.21-.23-.41-.47-.62-.7-.28-.31-.57-.61-.85-.91-.21-.23-.42-.46-.64-.68-.29-.3-.59-.59-.89-.88-.22-.22-.44-.44-.66-.65-.31-.29-.62-.58-.93-.86-.23-.21-.45-.42-.67-.62-.32-.28-.64-.55-.96-.83-.23-.2-.46-.4-.7-.6-.33-.27-.66-.53-.99-.8-.24-.19-.48-.39-.72-.57-.33-.26-.68-.51-1.02-.76-.25-.19-.5-.38-.75-.56-.35-.25-.7-.49-1.05-.73-.25-.17-.5-.35-.76-.52-.37-.24-.74-.48-1.11-.71-.25-.16-.5-.32-.75-.48-.39-.24-.78-.47-1.18-.7-.24-.14-.48-.29-.73-.43-.45-.26-.91-.5-1.37-.75-.2-.1-.39-.21-.58-.32-.66-.34-1.33-.68-2-1-8.44-4.02-17.49-6.07-26.9-6.07-4.55,0-9.1.5-13.54,1.48-23.78,5.23-42.48,23.98-47.64,47.76-.23,1.06-.44,2.13-.61,3.21-.06.36-.1.73-.15,1.09-.11.72-.21,1.43-.29,2.16-.05.43-.08.87-.12,1.31-.06.65-.12,1.31-.16,1.97-.03.46-.04.93-.05,1.4-.02.5-.05,1-.06,1.5-8.76-2.77-15.53-9.24-18.8-18.06-1.88-4.9-2.18-10.3-.88-15.62,2.52-10.24,10.38-18.27,20.51-20.98,2.66-.51,5.56-.8,8.37-1.08l1.16-.12c2.28-.05,2.93-1.55,3.17-2.12.03-.06.05-.12.13-.27,4.26-9.33,11.12-14.99,21-17.29,3.86-.93,7.32-1.13,10.57-.61,1.72.46,3.26-.13,4.07-1.56,6.81-10.38,16.32-16.67,28.21-18.69,12.71-1.79,23.46,1.18,32.92,9.11,6.85,5.39,11.22,12.33,13.01,20.6.6,2.96.91,6.22.91,9.43,0,.23.04.45.11.66l.09.26c.34,1.01.78,1.96,2.39,2.49,9.78,4.21,15.71,10.81,18.1,20.14.11.46.22.94.33,1.44l.02.11c.02.55.12,1.01.2,1.39.07.33.12.57.12.82v5.7Z"/><path class="cls-1" d="M103.31,134.05h-5.57v-49.54c0-1.1-.9-2-2-2s-2,.9-2,2v49.54h-5.57c-.71,0-1.38.38-1.73,1-.36.62-.36,1.38,0,2l7.57,13.1c.36.62,1.02,1,1.73,1s1.37-.38,1.73-1l7.57-13.1c.36-.62.36-1.38,0-2-.36-.62-1.02-1-1.73-1Z"/><path class="cls-1" d="M133.18,134.05h-5.57v-49.54c0-1.1-.9-2-2-2s-2,.9-2,2v49.54h-5.57c-.71,0-1.38.38-1.73,1-.36.62-.36,1.38,0,2l7.57,13.1c.36.62,1.02,1,1.73,1s1.37-.38,1.73-1l7.57-13.1c.36-.62.36-1.38,0-2-.36-.62-1.02-1-1.73-1Z"/><path class="cls-1" d="M73.46,134.05h-5.57v-49.54c0-1.1-.9-2-2-2s-2,.9-2,2v49.54h-5.57c-.71,0-1.37.38-1.73,1-.36.62-.36,1.38,0,2l7.57,13.1c.36.62,1.02,1,1.73,1s1.37-.38,1.73-1l7.57-13.1c.36-.62.36-1.38,0-2-.36-.62-1.02-1-1.73-1Z"/></svg>