<?xml version="1.0" encoding="UTF-8"?><svg id="Security_Networking" xmlns="http://www.w3.org/2000/svg" viewBox="0 0 192 192"><defs><style>.cls-1{fill:#fff;}</style></defs><path class="cls-1" d="M182.91,83.16c-.07-.33-.12-.57-.12-.82,0-.15-.02-.3-.05-.44l-.07-.3c-.12-.53-.23-1.03-.36-1.54-2.7-10.51-9.6-18.21-20.5-22.88-.03-.01-.05-.02-.08-.03-.02-3.36-.36-6.77-.99-9.91-1.96-9.1-6.96-17.03-14.4-22.89-10.19-8.54-22.31-11.89-36.06-9.96-13.03,2.2-23.41,9.03-30.84,20.28-.03-.01-.05-.01-.08-.01-3.82-.62-7.83-.41-12.25.65-10.99,2.56-18.97,9.12-23.67,19.43-.03.05-.06.1-.08.15l-1.18.12c-2.93.28-5.95.58-8.81,1.14-.04.01-.09.02-.13.03-11.57,3.07-20.55,12.23-23.43,23.91-1.5,6.11-1.15,12.33,1.02,17.98,3.85,10.42,12.06,17.94,22.63,20.84h0c.44,8.17,2.44,16.05,5.95,23.46,10.34,21.72,32.55,35.76,56.59,35.76v-.02c16.4,0,31.9-6.28,43.65-17.7,11.35-11.03,18.02-25.7,18.88-41.43h0s0-.02,0-.02c10.65-2.84,18.95-10.27,22.86-20.55.02-.05.03-.11.05-.16.62-2.17,1.31-4.75,1.65-7.36.02-.09.02-.17.02-.26v-5.83c0-.67-.11-1.21-.2-1.64ZM154.6,117.39c-.48,15.25-6.78,29.52-17.74,40.17-11,10.68-25.51,16.57-40.86,16.57-22.5,0-43.29-13.14-52.97-33.48-3.48-7.34-5.37-15.19-5.63-23.31v-.04s0-.01,0-.02c-.03-.59-.03-1.18-.03-1.84,0-4.18.45-8.38,1.35-12.48.02-.08.04-.17.06-.24.01-.05.02-.1.04-.15.1-.46.21-.92.33-1.38.09-.37.19-.74.29-1.1.08-.3.16-.61.25-.91.04-.15.09-.31.13-.46.12-.4.25-.8.38-1.2.11-.34.23-.7.34-1.04.03-.1.07-.2.1-.3.11-.3.21-.61.32-.91.09-.24.17-.47.26-.7.19-.5.38-.99.59-1.48.11-.26.22-.52.34-.78.33-.79.69-1.57,1.07-2.33.22-.49.47-.98.72-1.45.14-.27.28-.54.43-.81.07-.13.13-.25.2-.38.09-.17.19-.33.28-.5.13-.23.26-.46.4-.69.24-.42.48-.83.74-1.24.06-.1.12-.19.18-.29.08-.13.16-.26.25-.38.13-.22.26-.42.4-.63.14-.21.28-.42.42-.63.07-.12.15-.23.23-.35.05-.07.1-.14.14-.21.01-.02.02-.04.04-.06.31-.45.62-.9.95-1.34.06-.08.12-.17.18-.25.4-.55.81-1.09,1.24-1.62.01-.02.02-.04.04-.05.45-.57.91-1.13,1.38-1.68.18-.21.36-.41.53-.62.05-.06.11-.12.17-.18.25-.28.5-.56.76-.84.24-.27.5-.54.75-.8s.51-.52.76-.78c.2-.21.41-.41.62-.61.31-.31.63-.62.95-.92.38-.35.76-.7,1.15-1.04.38-.35.77-.68,1.17-1.01.33-.28.66-.55,1-.83,1.46-1.17,2.98-2.28,4.55-3.31.01,0,.02-.01.04-.02.32-.21.63-.42.96-.61.01-.01.03-.02.04-.03.25-.16.51-.32.76-.48.09-.05.18-.11.27-.16.5-.3,1-.59,1.51-.87.21-.11.41-.23.62-.34t0,0c.4-.22.8-.43,1.2-.64.16-.08.32-.16.48-.24.04-.02.08-.04.12-.06.46-.23.93-.46,1.4-.68.24-.11.47-.22.71-.32.29-.13.59-.26.88-.39.39-.17.78-.33,1.17-.48.22-.09.44-.18.65-.26.49-.19.98-.37,1.47-.55.15-.05.29-.1.43-.16.54-.19,1.08-.37,1.62-.54.13-.04.25-.08.38-.12.6-.19,1.21-.36,1.82-.53.14-.04.29-.08.43-.12.28-.08.55-.15.83-.22.08-.02.15-.04.23-.06.37-.09.74-.18,1.12-.27.11-.02.23-.05.34-.07,4.16-.91,8.42-1.38,12.68-1.38,8.81,0,17.28,1.91,25.18,5.68,5.07,2.41,9.7,5.52,13.79,9.17.12.11.24.22.36.33.35.31.69.63,1.03.95.04.04.08.07.12.12.04.04.08.08.12.11.35.34.7.69,1.05,1.04.13.13.25.26.38.39.07.08.15.15.22.23.31.32.61.64.91.97.19.2.38.42.56.63.02.02.03.04.05.06,0,0,.02.02.02.02.4.44.78.88,1.15,1.33.42.5.83,1.01,1.23,1.53.12.14.23.28.33.43.19.25.38.49.56.74.16.21.32.43.48.65.24.33.48.67.71,1.01.1.15.2.3.31.45.17.25.33.51.5.76.33.49.64.99.94,1.49.17.28.35.56.51.85.17.28.33.56.49.85.07.11.14.23.2.36.28.48.54.97.79,1.46.08.15.16.3.23.45.13.26.27.51.39.77.07.15.15.3.22.45.14.3.28.59.42.89.17.37.33.74.49,1.1.13.29.25.57.37.86.16.38.32.76.46,1.14.1.23.19.46.27.69.13.33.25.66.36.99.06.17.12.35.18.52.1.27.19.53.28.8.14.42.28.85.4,1.28.04.13.08.26.12.39.07.24.14.48.21.72.08.28.16.55.23.83.09.31.17.62.25.94.08.3.14.6.21.9.07.28.14.57.2.85.16.67.29,1.35.41,2.03.1.53.19,1.06.26,1.59,0,.06.02.12.03.18.04.17.06.34.08.52v.04c.09.59.17,1.18.23,1.78.08.69.15,1.39.19,2.09.06.69.1,1.39.12,2.09.03.69.04,1.37.04,2.06h0s0,.03,0,.05h0s0,0,0,0c0,.61-.01,1.23-.03,1.83v.05ZM179.09,90.51c-.31,2.27-.92,4.59-1.49,6.57-3.31,8.63-10.14,14.99-18.98,17.71,0-.05,0-.09,0-.14,0-.33,0-.65-.02-.98-.01-.37-.03-.74-.04-1.11-.03-.49-.06-.98-.1-1.46-.02-.31-.04-.62-.07-.92-.03-.31-.05-.61-.08-.93-.04-.37-.08-.73-.12-1.09-.04-.37-.09-.73-.14-1.1-.05-.34-.1-.68-.15-1.02,0-.05-.02-.1-.02-.15-.05-.33-.1-.66-.16-.99-.05-.31-.1-.61-.16-.91,0-.05-.02-.1-.03-.14-.01-.07-.03-.14-.04-.21-.11-.56-.22-1.12-.35-1.68-.02-.08-.04-.15-.06-.23-.02-.08-.04-.16-.06-.23-.11-.48-.22-.97-.35-1.45-.03-.13-.07-.26-.11-.39-.02-.07-.04-.14-.06-.21-.04-.15-.08-.29-.12-.44-.14-.5-.28-.99-.43-1.49,0,0,0,0,0,0,0-.02-.01-.04-.02-.06-.05-.18-.11-.35-.16-.53-.01-.03-.02-.07-.03-.1-.13-.41-.27-.83-.41-1.24-.04-.11-.08-.23-.12-.34-.09-.29-.19-.58-.3-.86-.08-.22-.16-.42-.24-.64-.08-.2-.15-.41-.23-.61-.01-.03-.02-.06-.03-.08-.23-.61-.48-1.22-.73-1.82-.12-.29-.25-.58-.38-.87-.08-.18-.16-.35-.24-.53-.11-.25-.23-.5-.34-.75-.05-.11-.1-.23-.16-.34-.13-.29-.27-.58-.41-.87-.08-.15-.15-.3-.23-.45-.22-.44-.45-.87-.69-1.3-1.43-2.68-3.05-5.26-4.85-7.71,0,0,0,0,0,0,0,0,0,0,0-.01-.07-.1-.14-.19-.21-.29-.07-.09-.13-.18-.2-.27-.33-.44-.67-.88-1.02-1.32,0,0,0,0,0,0,0,0,0,0,0,0-.45-.57-.9-1.12-1.37-1.67-.03-.04-.06-.08-.1-.12-.44-.51-.88-1.01-1.34-1.51-.34-.38-.7-.76-1.06-1.13l-.16-.16s-.01-.01-.02-.02c-.04-.04-.07-.08-.11-.11-.01-.01-.03-.03-.04-.04-.18-.18-.36-.36-.54-.54-.11-.11-.21-.22-.32-.32-.26-.27-.52-.52-.78-.77-.36-.35-.73-.68-1.1-1.01-1.12-1.02-2.27-2-3.47-2.93-.1-.08-.19-.16-.29-.23-.01,0-.02-.02-.03-.03-.62-.48-1.25-.95-1.89-1.4-.02-.02-.05-.03-.07-.05-.41-.3-.83-.59-1.25-.87-.08-.06-.17-.11-.25-.16-1.26-.84-2.55-1.65-3.88-2.4,0,0,0,0-.01,0,0,0,0,0,0,0-.02,0-.03-.02-.05-.03-.08-.04-.16-.09-.23-.13-.55-.31-1.11-.61-1.68-.91,0,0-.02-.01-.02-.01-.65-.34-1.32-.67-1.99-.99-8.43-4.02-17.48-6.06-26.9-6.06-4.55,0-9.11.5-13.54,1.48-2.84.62-5.59,1.46-8.26,2.46-.19.07-.37.14-.56.21-.54.21-1.08.42-1.62.65-.57.24-1.13.48-1.69.73-.22.1-.44.18-.65.28-.2.09-.39.2-.59.29-.58.28-1.16.56-1.73.85-.43.22-.85.44-1.27.67-.49.27-.97.54-1.46.82-.24.14-.49.27-.73.41-.09.05-.18.1-.27.16-.58.36-1.16.72-1.73,1.09-.61.4-1.23.81-1.83,1.23-1.21.83-2.38,1.72-3.52,2.66-.57.44-1.13.92-1.68,1.41-.56.49-1.1.98-1.64,1.48-.53.5-1.06,1.01-1.58,1.53s-1.03,1.05-1.53,1.59c-.2.21-.38.43-.57.64-.36.4-.73.81-1.08,1.22-.35.41-.7.82-1.04,1.24-.37.46-.74.92-1.1,1.39-.15.19-.31.38-.45.57-.44.58-.87,1.18-1.29,1.78-.42.61-.83,1.22-1.23,1.84-.39.61-.78,1.22-1.15,1.85t-.02.03s-.02.03-.03.05c-.35.59-.7,1.19-1.03,1.8-.01.02-.02.04-.03.06,0,.02-.02.03-.03.05,0,0,0,0,0,0h0c-.15.27-.28.54-.42.81-.11.21-.23.42-.34.63-.03.04-.05.09-.07.13-.07.13-.14.26-.2.39-.02.04-.05.09-.07.13-.25.51-.49,1.01-.73,1.52-.14.29-.27.59-.4.88-.17.38-.34.75-.5,1.13-.02.04-.03.08-.05.12-.06.15-.12.3-.19.44-.01.03-.03.07-.04.1-.22.52-.43,1.05-.63,1.58-.06.15-.12.3-.17.46-.23.61-.44,1.22-.65,1.83-.22.67-.44,1.34-.64,2.02-.04.11-.07.22-.1.34-.19.65-.37,1.31-.54,1.98-.18.72-.36,1.45-.52,2.19v.02c-.09.43-.18.87-.27,1.3-.02.13-.05.25-.07.38-.08.4-.15.8-.22,1.19-.02.09-.03.19-.05.28-.07.43-.13.86-.19,1.29-.02.09-.03.17-.04.26-.07.52-.14,1.04-.2,1.56-.06.49-.11.99-.15,1.49,0,.05,0,.11-.02.16-.04.5-.08,1.01-.11,1.52-.03.53-.06,1.06-.08,1.59s-.03,1.07-.04,1.6h0c-8.76-2.77-15.53-9.23-18.8-18.06-1.89-4.91-2.19-10.31-.88-15.62,2.53-10.24,10.38-18.27,20.51-20.98,2.66-.52,5.56-.8,8.37-1.08l1.16-.12c2.28-.05,2.92-1.55,3.17-2.12.03-.06.06-.12.13-.27,4.26-9.34,11.12-14.99,21-17.29,3.86-.93,7.32-1.13,10.57-.61,1.73.46,3.27-.13,4.07-1.56,6.8-10.39,16.31-16.68,28.21-18.69,12.7-1.79,23.46,1.18,32.92,9.11,6.85,5.38,11.23,12.33,13.01,20.6.6,2.95.91,6.22.91,9.43,0,.22.04.45.11.66l.09.26c.34,1.02.78,1.97,2.39,2.49,9.78,4.22,15.71,10.81,18.1,20.14.11.46.22.94.33,1.44l.02.11c.03.55.12,1.01.2,1.39.07.33.12.57.12.82v5.7Z"/><circle class="cls-1" cx="139.43" cy="107.17" r="1.77"/><path class="cls-1" d="M133.68,108.94c.98,0,1.77-.79,1.77-1.77s-.79-1.77-1.77-1.77-1.77.79-1.77,1.77.79,1.77,1.77,1.77Z"/><path class="cls-1" d="M127.52,108.94c.98,0,1.77-.79,1.77-1.77s-.79-1.77-1.77-1.77-1.77.79-1.77,1.77.79,1.77,1.77,1.77Z"/><path class="cls-1" d="M143.81,99.3h-27.74c.16-1.04.25-2.12.25-3.21,0-11.21-9.12-20.33-20.32-20.33s-20.33,9.12-20.33,20.33c0,1.09.09,2.17.25,3.21h-27.72c-2.33,0-4.23,1.89-4.23,4.22v26.56c0,2.33,1.9,4.22,4.23,4.22h16.77c-1.23,3.45-1.9,7.17-1.9,11.04,0,1.11.89,2,2,2h61.85c1.11,0,2-.89,2-2,0-3.87-.67-7.59-1.9-11.04h16.79c2.33,0,4.22-1.89,4.22-4.22v-26.56c0-2.33-1.89-4.22-4.22-4.22ZM143.81,103.3c.12,0,.22.1.22.22v7.5h-34.27c2.3-2.11,4.11-4.75,5.23-7.72h28.82ZM124.86,143.34h-13v-10.6c0-1.11-.89-2-2-2s-2,.89-2,2v10.6h-23.73v-10.6c0-1.11-.9-2-2-2s-2,.89-2,2v10.6h-12.99c.22-3.18.95-6.22,2.13-9.04.57-1.39,1.25-2.73,2.03-4,1.7-2.79,3.87-5.27,6.39-7.34,1.04-.86,2.16-1.65,3.32-2.35,2.1-1.28,4.37-2.3,6.78-3.01,1.3-.39,2.63-.68,4-.88,1.38-.21,2.78-.31,4.21-.31s2.84.1,4.22.31c1.37.2,2.7.49,4,.88,6.93,2.06,12.79,6.65,16.48,12.7.78,1.27,1.46,2.61,2.03,4,1.18,2.82,1.91,5.86,2.13,9.04ZM75.35,115.01l5.97-4.88c1.43,1.49,3.08,2.77,4.89,3.76-2.9.91-5.64,2.21-8.13,3.83l-2.73-2.71ZM79.67,96.09c0-9,7.32-16.33,16.33-16.33s16.32,7.33,16.32,16.33c0,1.1-.11,2.17-.32,3.21-.13.68-.31,1.35-.54,2-.23.69-.5,1.36-.82,2-1.42,2.87-3.66,5.27-6.42,6.88-.48.28-.97.54-1.48.77-.05.03-.11.05-.16.07h-.33c-.6,0-1.14.26-1.5.68-.17.06-.35.11-.53.16-1.34.36-2.76.55-4.22.55s-2.87-.19-4.21-.55c-1.42-.38-2.76-.94-4-1.67-1.23-.71-2.36-1.59-3.36-2.6-.45-.45-.87-.93-1.26-1.43-.44-.55-.84-1.13-1.19-1.73-.23-.37-.44-.74-.63-1.13-.29-.59-.55-1.2-.77-1.83-.25-.71-.45-1.43-.59-2.17-.21-1.04-.32-2.11-.32-3.21ZM77,103.3c.48,1.3,1.11,2.53,1.85,3.68l-11.1,9.07-15.6-12.75h24.85ZM47.97,127.01v-21.95l12.16,9.93-12.16,12.03ZM50.32,130.3l12.92-12.78,3.25,2.66c.37.3.82.45,1.26.45s.9-.15,1.27-.45l3.21-2.62,2.6,2.57c-3.34,2.81-6.11,6.26-8.12,10.17h-16.38ZM143.81,130.3h-18.53c-3.51-6.82-9.34-12.26-16.43-15.28h35.18v15.06c0,.12-.1.22-.22.22Z"/></svg>