<?xml version="1.0" encoding="UTF-8"?>
<svg xmlns="http://www.w3.org/2000/svg" viewBox="0 0 192.508254 192.508254">
  <defs>
    <style>
      .cls-1 {
        fill: none;
      }

      .cls-2 {
        fill: #fff;
      }
    </style>
  </defs>
  <g id="Export">
    <path class="cls-2" d="M156.561689,119.336379c-.472656,0-.935547-.167969-1.300781-.480469-.458984-.393555-.71582-.972656-.698242-1.577148l.016602-.513672c.013672-.419922.02832-.84082.02832-1.264648,0-32.366211-26.298828-58.698242-58.625-58.698242s-58.625,26.332031-58.625,58.698242l.00293,1.786133c.000977.597656-.265625,1.165039-.726562,1.544922-.459961.381836-1.066406.540039-1.655273.420898-15.097656-2.939453-26.054688-16.249023-26.054688-31.647949,0-17.782715,14.466797-32.25,32.25-32.25.748047,0,1.518555.028809,2.294922.085938,4.714844-12.499023,16.801758-20.873535,30.180664-20.873535,1.856445,0,3.732422.164062,5.577148.488281,8.214844-13.250488,22.394531-21.154785,37.961914-21.154785,24.456055,0,43.959961,18.992676,44.53125,43.294922,12.895508,4.44043,21.537109,16.621582,21.537109,30.40918,0,15.533691-11.073242,28.864746-26.330078,31.69873-.121094.022461-.244141.033203-.365234.033203ZM95.982588,52.802199c34.301758,0,62.250977,27.755859,62.621094,62.011719,12.104492-3.359375,20.65332-14.433594,20.65332-27.209473,0-12.166504-7.672852-22.901367-19.091797-26.712891-1.443359-.480957-2.37793-1.741211-2.4375-3.288574-.000977-.014648-.000977-.028809-.001953-.043457-.380859-22.23877-18.186523-39.65918-40.537109-39.65918-14.21875,0-27.166992,7.245117-34.635742,19.381348-.820312,1.333008-2.349609,2.010742-3.895508,1.734863-1.65625-.29834-3.34082-.449707-5.007812-.449707-11.816406,0-22.480469,7.456055-26.537109,18.553223-.550781,1.507324-2.047852,2.46875-3.648438,2.33252-.776367-.064941-1.546875-.098145-2.290039-.098145-15.577148,0-28.25,12.672852-28.25,28.25,0,12.664551,8.460938,23.716309,20.438477,27.149902.400391-34.232422,28.336914-61.952148,62.620117-61.952148Z"/>
    <path class="cls-2" d="M95.982588,178.197707c-34.53125,0-62.625-28.125977-62.625-62.697266,0-34.571777,28.09375-62.698242,62.625-62.698242s62.625,28.126465,62.625,62.698242c0,34.571289-28.09375,62.697266-62.625,62.697266ZM95.982588,56.802199c-32.326172,0-58.625,26.332031-58.625,58.698242s26.298828,58.697266,58.625,58.697266,58.625-26.331055,58.625-58.697266-26.298828-58.698242-58.625-58.698242Z"/>
    <path class="cls-2" d="M69.548978,134.509251c-.338867,0-.682617-.085938-.998047-.267578-.957031-.552734-1.28418-1.775391-.732422-2.732422l5.663102-9.802755c.552734-.957031,1.773438-1.285156,2.732422-.732422.957031.552734,1.28418,1.775391.732422,2.732422l-5.663102,9.802755c-.371094.641602-1.042969,1-1.734375,1Z"/>
    <path class="cls-2" d="M122.523451,149.034381c-.691406,0-1.363281-.358398-1.734375-1l-5.834961-10.104492c-.551758-.956055-.224609-2.179688.732422-2.732422.956055-.553711,2.179688-.224609,2.732422.732422l5.834961,10.104492c.551758.956055.224609,2.179688-.732422,2.732422-.314453.181641-.65918.267578-.998047.267578Z"/>
    <path class="cls-2" d="M125.088056,158.430129c-3.831055,0-6.948242-3.117188-6.948242-6.949219,0-3.831055,3.117188-6.948242,6.948242-6.948242,3.832031,0,6.949219,3.117188,6.949219,6.948242,0,3.832031-3.117188,6.949219-6.949219,6.949219ZM125.088056,148.532668c-1.625977,0-2.948242,1.322266-2.948242,2.948242s1.322266,2.949219,2.948242,2.949219,2.949219-1.323242,2.949219-2.949219-1.323242-2.948242-2.949219-2.948242Z"/>
    <path class="cls-2" d="M66.907392,144.067824c-3.831055,0-6.948242-3.117188-6.948242-6.949219,0-3.831055,3.117188-6.948242,6.948242-6.948242,3.832031,0,6.949219,3.117188,6.949219,6.948242,0,3.832031-3.117188,6.949219-6.949219,6.949219ZM66.907392,134.170363c-1.625977,0-2.948242,1.322266-2.948242,2.948242s1.322266,2.949219,2.948242,2.949219,2.949219-1.323242,2.949219-2.949219-1.323242-2.948242-2.949219-2.948242Z"/>
    <path class="cls-2" d="M66.907392,86.467238c-3.831055,0-6.948242-3.117188-6.948242-6.948242,0-3.831543,3.117188-6.94873,6.948242-6.94873,3.832031,0,6.949219,3.117188,6.949219,6.94873,0,3.831055-3.117188,6.948242-6.949219,6.948242ZM66.907392,76.570266c-1.625977,0-2.948242,1.322754-2.948242,2.94873,0,1.625488,1.322266,2.948242,2.948242,2.948242s2.949219-1.322754,2.949219-2.948242c0-1.625977-1.323242-2.94873-2.949219-2.94873Z"/>
    <path class="cls-2" d="M66.907392,115.267043c-3.831055,0-6.948242-3.117188-6.948242-6.948242s3.117188-6.948242,6.948242-6.948242c3.832031,0,6.949219,3.117188,6.949219,6.948242s-3.117188,6.948242-6.949219,6.948242ZM66.907392,105.370559c-1.625977,0-2.948242,1.322266-2.948242,2.948242s1.322266,2.948242,2.948242,2.948242,2.949219-1.322266,2.949219-2.948242-1.323242-2.948242-2.949219-2.948242Z"/>
    <g>
      <path class="cls-2" d="M70.895386,105.41156l5.472961-9.47998h10.974182c-.271667-.612671-.429077-1.286865-.429077-2.000183,0-.713196.157349-1.387268.428894-1.999817h-12.128296c-.714844,0-1.375.381348-1.732422,1l-6.056946,10.490723c1.425781.150085,2.667603.890076,3.470703,1.989258Z"/>
      <path class="cls-2" d="M101.866394,107.318787l-6.036804-10.455811c-.809692,1.093567-2.054565,1.827087-3.482605,1.96814l5.477417,9.487671-7.151367,12.387695h-14.304688l-5.472961-9.480347c-.803101,1.099243-2.044983,1.839172-3.470764,1.989258l6.057007,10.491089c.357422.619141,1.017578,1,1.732422,1h16.613281c.714844,0,1.375-.380859,1.732422-1l8.306641-14.387695c.356445-.619141.356445-1.380859,0-2Z"/>
    </g>
    <path class="cls-2" d="M91.862471,100.880324c-3.832031,0-6.949219-3.117188-6.949219-6.94873s3.117188-6.94873,6.949219-6.94873c3.831055,0,6.948242,3.117188,6.948242,6.94873s-3.117188,6.94873-6.948242,6.94873ZM91.862471,90.982863c-1.625977,0-2.949219,1.322754-2.949219,2.94873s1.323242,2.94873,2.949219,2.94873,2.948242-1.322754,2.948242-2.94873-1.322266-2.94873-2.948242-2.94873Z"/>
    <path class="cls-2" d="M124.978681,124.706496c-.338867,0-.673828-.085938-.97168-.250977l-.296875-.142578c-6.108398-2.935547-9.074219-4.632812-11.636719-7.544922-2.295898-2.606445-3.666016-6.34082-3.666016-9.988281v-17.630859c0-1.044434.803711-1.912598,1.844727-1.994141l.864258-.067383c4.40625-.351562,8.567383-1.668457,12.363281-3.914551l.480469-.28418c.628906-.371094,1.407227-.371094,2.036133.000977l.478516.283203c3.742188,2.21582,8.018555,3.569824,12.366211,3.915039l.861328.066895c1.041016.081543,1.844727.949707,1.844727,1.994141v17.632812c0,3.647461-1.370117,7.381836-3.666016,9.989258-2.55957,2.90918-5.525391,4.606445-11.629883,7.542969l-.407227.195312c-.276367.132812-.572266.197266-.865234.197266ZM112.407392,90.982863v15.796875c0,2.702148.99707,5.448242,2.667969,7.345703,2.041992,2.320312,4.626953,3.810547,9.905273,6.360352,5.274414-2.549805,7.858398-4.040039,9.898438-6.357422,1.670898-1.898438,2.667969-4.644531,2.667969-7.34668v-15.799316c-4.408203-.485352-8.722656-1.876465-12.569336-4.054688-3.893555,2.20752-8.115234,3.569824-12.570312,4.055176Z"/>
    <path class="cls-2" d="M122.404463,110.961379c-.511719,0-1.023438-.195312-1.414062-.585938l-5.460938-5.460938c-.78125-.78125-.78125-2.046875,0-2.828125s2.046875-.78125,2.828125,0l4.046875,4.046875,9.192383-9.191406c.78125-.78125,2.046875-.78125,2.828125,0s.78125,2.046875,0,2.828125l-10.606445,10.605469c-.390625.390625-.902344.585938-1.414062.585938Z"/>
    <path class="cls-2" d="M75.188642,95.932082c-.691406,0-1.363281-.358887-1.734375-1.000488l-5.761533-9.957883c-.551758-.956543-.224609-2.179688.732422-2.731934.956055-.554688,2.178711-.224121,2.732422.731934l5.761533,9.957883c.551758.956543.224609,2.179688-.732422,2.731934-.314453.182129-.65918.268555-.998047.268555Z"/>
    <path class="cls-2" d="M125.383972,122.511047l-.406616.195251.002319-.00238-.406677-.19519c-.969177-.465881-1.848206-.89624-2.662537-1.305847l.868042,1.503601-7.151367,12.387695h-14.303711l-7.151367-12.387695,7.151367-12.387695h9.562317c-.312134-1.152527-.478333-2.350891-.478333-3.53949v-.46051h-10.238281c-.714844,0-1.375.380859-1.732422,1l-8.306641,14.387695c-.356445.619141-.356445,1.380859,0,2l8.306641,14.387695c.357422.619141,1.017578,1,1.732422,1h16.612305c.714844,0,1.375-.380859,1.732422-1l8.306641-14.387695c.34021-.590942.345764-1.308472.03656-1.911255-.471191.23114-.95636.467346-1.473083.71582Z"/>
  </g>
  <g id="Container">
    <rect class="cls-1" width="192" height="192"/>
  </g>
</svg>