<?xml version="1.0" encoding="UTF-8"?>
<svg id="Layer_1" data-name="Layer 1" xmlns="http://www.w3.org/2000/svg" viewBox="0 0 190 190">
  <defs>
    <style>
      .cls-1 {
        fill: #fff;
      }
    </style>
  </defs>
  <path class="cls-1" d="M95.900101,133.899994c-22.199997,0-40.299999-18.099991-40.299999-40.299995s18.100002-40.299999,40.299999-40.299999c.5,0,1,.2001,1.400002.600101.400002.399998.599998.899899.599998,1.399899v36.299999h36.299896c1.100006,0,2,.900002,2,2,0,22.200005-18.099998,40.299995-40.299896,40.299995ZM93.900101,57.400101c-19.099998,1.099998-34.299999,16.899902-34.299999,36.199898s16.299999,36.299995,36.299999,36.299995,35.199905-15.199997,36.199905-34.299995h-36.199905c-1.099998,0-2-.900002-2-2v-36.199898Z"/>
  <path class="cls-1" d="M140.399994,95.600098h-44.500092c-1.100006,0-2-.899994-2-2v-44.499996c0-1.100002.899994-2,2-2,25.700096,0,46.500092,20.899998,46.500092,46.499996,0,2-.899994,2-2,2ZM97.899902,91.600098h40.500092c-1-21.799995-18.599991-39.399998-40.500092-40.499996v40.499996Z"/>
  <path class="cls-1" d="M37.300201,77.500099c-5,0-9.100002-4.099998-9.100002-9.199997s4.100002-9.200001,9.100002-9.200001,9.099998,4.099998,9.099998,9.200001-4.099998,9.199997-9.099998,9.199997ZM37.300201,63.2001c-2.800003,0-5.100002,2.299999-5.100002,5.200001s2.299999,5.199997,5.100002,5.199997,5.199997-2.299995,5.199997-5.199997-2.299999-5.200001-5.199997-5.200001Z"/>
  <path class="cls-1" d="M37.300201,117.199997c-5,0-9.100002-4.099998-9.100002-9.199997s4.100002-9.199997,9.100002-9.199997,9.099998,4.099998,9.099998,9.199997-4.099998,9.199997-9.099998,9.199997ZM37.300201,102.900002c-2.800003,0-5.100002,2.299995-5.100002,5.199997s2.299999,5.200005,5.100002,5.200005,5.199997-2.300003,5.199997-5.200005-2.299999-5.199997-5.199997-5.199997Z"/>
  <path class="cls-1" d="M157.399994,89.599998c-5.099991,0-9.099991-4.099998-9.099991-9.199997s4.099991-9.200005,9.099991-9.200005,9.100006,4.100006,9.100006,9.200005-4.100006,9.199997-9.100006,9.199997ZM157.399994,75.300003c-2.799988,0-5.099991,2.299995-5.099991,5.199997s2.300003,5.199997,5.099991,5.199997c2.800003,0,5.100006-2.299995,5.100006-5.199997s-2.300003-5.199997-5.100006-5.199997Z"/>
  <path class="cls-1" d="M154.399994,134.199997c-5.099991,0-9.099991-4.099991-9.099991-9.199997s4.099991-9.199997,9.099991-9.199997,9.100006,4.099998,9.100006,9.199997-4.100006,9.199997-9.100006,9.199997ZM154.399994,119.900002c-2.799988,0-5.099991,2.299995-5.099991,5.199997s2.300003,5.099998,5.099991,5.099998c2.800003,0,5.100006-2.299995,5.100006-5.199997s-2.300003-5.199997-5.100006-5.099998Z"/>
  <path class="cls-1" d="M70.499802,168.600006c-5.099998,0-9.200001-4.100006-9.200001-9.100006s4.100002-9.100006,9.200001-9.100006,9.199997,4.100006,9.199997,9.100006-4.099998,9.100006-9.199997,9.100006ZM70.499802,154.300003c-2.800003,0-5.200005,2.300003-5.200005,5.099991,0,2.800003,2.300003,5.100006,5.200005,5.100006s5.199997-2.300003,5.199997-5.100006c0-2.799988-2.299995-5.099991-5.199997-5.099991Z"/>
  <path class="cls-1" d="M97.300102,182.399994c-5.099998,0-9.200005-4.099991-9.200005-9.099991s4.100006-9.100006,9.200005-9.100006c5.099899,0,9.199898,4.100006,9.199898,9.100006s-4.099998,9.099991-9.199898,9.099991ZM97.300102,168.100006c-2.800003,0-5.200005,2.299988-5.200005,5.099991s2.300003,5.100006,5.200005,5.100006c2.899895,0,5.199898-2.300003,5.199898-5.100006s-2.300003-5.099991-5.199898-5.099991Z"/>
  <path class="cls-1" d="M70.499802,38c-5.099998,0-9.200001-4.099998-9.200001-9.1s4.100002-9.1,9.200001-9.1,9.199997,4.1,9.199997,9.1-4.099998,9.1-9.199997,9.1ZM70.499802,23.6c-2.800003,0-5.200005,2.3001-5.200005,5.1001s2.300003,5.200001,5.200005,5.200001,5.199997-2.3001,5.199997-5.100101-2.299995-5.099998-5.199997-5.199999Z"/>
  <path class="cls-1" d="M97.300102,25c-5.099998,0-9.200005-4.1-9.200005-9.1s4.100006-9.09995,9.200005-9.09995c5.099899,0,9.199898,4.09995,9.199898,9.09995s-4.099998,9.1-9.199898,9.1ZM97.300102,10.7c-2.800003,0-5.200005,2.3-5.200005,5.2s2.300003,5.1,5.200005,5.1c2.899895,0,5.199898-2.299999,5.199898-5.1s-2.300003-5.099998-5.199898-5.2Z"/>
  <path class="cls-1" d="M155.400024,36.499878v37.190613c.634888-.186218,1.304871-.290588,2-.290588.659119,0,1.294373.096802,1.899963.264893v-38.864868c0-1-.799988-2-1.799988-2l-3.599976-.300049c-9.900024-.799988-19.700012-2.799988-29.200012-5.899963-7.060242-2.325745-13.908691-5.349487-20.440308-8.883179-.34259,1.315369-1.043762,2.483154-1.998352,3.392578,6.755676,3.641846,13.889771,6.768799,21.238647,9.190613,9.900024,3.199951,20,5.299988,30.200012,6.199951h1.700012Z"/>
  <path class="cls-1" d="M150.017151,130.578247c-1.956055,4.154907-4.374573,7.940796-7.217163,11.121765-8.829346,9.956543-19.513428,16.296448-40.501465,26.559753.93689.929199,1.611206,2.118958,1.916321,3.450134,21.418152-10.444824,32.383911-16.994202,41.585144-27.509888,3.084473-3.495728,5.733154-7.61261,7.875305-12.136658-1.374268-.139343-2.629028-.675415-3.658142-1.485107Z"/>
  <path class="cls-1" d="M63.299805,28.80011c0-.136719.012939-.270142.020447-.404968-1.574829.423401-3.15863.826233-4.720459,1.204834-5.799988,1.300049-11.899963,2.200012-17.899963,2.700012l-3.600037.299927c-1,.099976-1.799988,1-1.799988,2v26.787659c.635742-.183716,1.30542-.287476,2.000305-.287476.65863,0,1.29364.096008,1.899719.261658v-25.061768h1.699951c6.300049-.5,12.5-1.399963,18.5-2.799988,1.62384-.371155,3.224854-.76709,4.815613-1.191284-.581116-1.038574-.915588-2.233887-.915588-3.508606Z"/>
  <g>
    <path class="cls-1" d="M35.790833,100.961243c-.116577-.290039-.216064-.331665-.294067.075623.098022-.02533.194458-.054321.294067-.075623Z"/>
    <path class="cls-1" d="M51.799805,141.700012c-6.266907-7.150757-10.526367-16.88446-11.961121-26.969238-.790527.298401-1.643677.469238-2.538574.469238-.500244,0-.988342-.051453-1.459839-.14856,1.501648,10.904541,6.084167,21.483398,12.959534,29.248535,4.249878,4.867981,8.92395,8.900208,14.978577,12.926819.436646-1.291016,1.230774-2.41571,2.269592-3.25354-5.782227-3.866699-10.227478-7.711365-14.248169-12.273254Z"/>
  </g>
</svg>