<?xml version="1.0" encoding="UTF-8"?>
<svg id="Security_Networking" data-name="Security Networking" xmlns="http://www.w3.org/2000/svg" viewBox="0 0 192 192">
  <defs>
    <style>
      .cls-1 {
        fill: none;
      }

      .cls-1, .cls-2, .cls-3 {
        stroke: #464646;
        stroke-linecap: round;
        stroke-linejoin: round;
      }

      .cls-1, .cls-3 {
        stroke-width: 4px;
      }

      .cls-2 {
        fill: #464646;
        stroke-width: 2px;
      }

      .cls-3 {
        fill: #2cccd3;
      }
    </style>
  </defs>
  <path class="cls-1" d="M96,177.97l-1.75-.84c-25.15-12.09-37.28-18.97-47.33-30.39-8.54-9.7-13.63-23.65-13.63-37.3V33.57l3.72-.29c20.31-1.62,39.46-7.69,56.92-18.02l2.06-1.22,2.06,1.22c17.21,10.19,36.89,16.43,56.92,18.02l3.72.29v75.88c0,13.65-5.1,27.61-13.63,37.3-10.05,11.42-22.18,18.3-47.32,30.39l-1.75.84Z"/>
  <g>
    <circle class="cls-2" cx="63.59" cy="124.31" r="7.03"/>
    <path class="cls-3" d="M108.78,84.58l26.94,6.09c2.31.7,2.31,3.97,0,4.67l-26.94,6.09c-2.14.65-3.81,2.32-4.46,4.46l-6.09,26.94c-.7,2.31-3.97,2.31-4.67,0l-6.09-26.94c-.65-2.14-2.32-3.81-4.46-4.46l-26.94-6.09c-2.31-.7-2.31-3.97,0-4.67l26.94-6.09c2.14-.65,3.81-2.32,4.46-4.46l6.09-26.94c.7-2.31,3.97-2.31,4.67,0l6.09,26.94c.65,2.14,2.32,3.81,4.46,4.46Z"/>
    <path class="cls-2" d="M130.78,59.53l7.4,1.67c.63.19.63,1.09,0,1.28l-7.4,1.67c-.59.18-1.05.64-1.22,1.22l-1.67,7.4c-.19.63-1.09.63-1.28,0l-1.67-7.4c-.18-.59-.64-1.05-1.22-1.22l-7.4-1.67c-.63-.19-.63-1.09,0-1.28l7.4-1.67c.59-.18,1.05-.64,1.22-1.22l1.67-7.4c.19-.63,1.09-.63,1.28,0l1.67,7.4c.18.59.64,1.05,1.22,1.22Z"/>
  </g>
</svg>