<?xml version="1.0" encoding="UTF-8"?><svg id="Security_Networking" xmlns="http://www.w3.org/2000/svg" viewBox="0 0 192 192"><defs><style>.cls-1{fill:#2cccd3;}.cls-2{fill:#fff;}</style></defs><path class="cls-1" d="M24.05,24.6h0c6.2,0,11.1,5,11.1,11.1h0c0,6.2-5,11.1-11.1,11.1h0c-6.2,0-11.1-5-11.1-11.1h0c0-6.1,5-11.1,11.1-11.1Z"/><path class="cls-1" d="M168.25,24.6h0c6.2,0,11.2,5,11.2,11.1h0c0,6.2-5,11.1-11.1,11.1h0c-6.2,0-11.1-5-11.1-11.1h0c0-6.1,4.8-11.1,11-11.1h0Z"/><rect class="cls-1" x="21.25" y="41.8" width="5.7" height="55"/><rect class="cls-1" x="165.45" y="41.8" width="5.7" height="55"/><path class="cls-1" d="M84.35,111.1c0,5.1-4.1,9.2-9.2,9.2s-9.2-4.1-9.2-9.2,4.1-9.2,9.2-9.2,9.2,4.1,9.2,9.2Z"/><path class="cls-1" d="M125.25,111.1c0,5.1-4.1,9.2-9.2,9.2s-9.2-4.1-9.2-9.2,4.1-9.2,9.2-9.2,9.2,4.1,9.2,9.2Z"/><path class="cls-1" d="M24.15,90.8c-.99.14-1.96.37-2.9.68v5.32h5.7v-12.16c-1.06,1.99-1.99,4.04-2.8,6.16ZM49.73,104.4c2.22-9.68,9.59-17.44,19.06-20.21-9.52,2.75-16.86,10.51-19.06,20.21ZM49.73,104.4c-.25,1.08-.43,2.18-.54,3.3.11-1.12.3-2.22.54-3.3ZM57.05,129.9c4.11,4.11,9.42,6.86,15.39,7.71-5.97-.88-11.28-3.69-15.39-7.71ZM97.9,149.05c.44,1.47,1.92,2.33,3.41,2.1-1.48.2-2.95-.69-3.41-2.1ZM133.8,129.5c5.24-5.07,8.55-11.2,8.55-19-.07,7.8-3.35,13.92-8.55,19ZM168.25,90.7h-.2c-.76-1.96-1.63-3.88-2.6-5.73v11.83h5.7v-5.32c-.93-.34-1.9-.6-2.9-.78Z"/><path class="cls-1" d="M171.15,91.48v5.32h-5.7v-11.83c-9.31-17.86-27.83-30.2-49.3-30.47h-39.3c-21.6,0-40.45,12.23-49.9,30.14v12.16h-5.7v-5.32c-7.65,2.5-13.2,10.24-13.2,19.42,0,10.3,7,18.8,16,20.2,8.2,21.2,28.7,36.3,52.7,36.3h38.5c24,0,44.6-15.1,52.7-36.3,9.1-1.5,16-9.9,16-20.2,0-9.16-5.3-16.74-12.8-19.42ZM133.8,129.5c-.35.34-.71.67-1.07,1-1.95,1.75-4.13,3.38-6.48,4.9l-23.7,15.3c-.4.25-.82.4-1.24.45-1.49.23-2.97-.63-3.41-2.1-.1-.29-.15-.61-.15-.95v-10.2h-21.3c-.95,0-1.89-.05-2.81-.14-.4-.04-.8-.09-1.2-.15-5.97-.85-11.28-3.6-15.39-7.71-5-5-8-11.8-8-19.4,0-.94.05-1.88.14-2.8.11-1.12.29-2.22.54-3.3,2.2-9.7,9.54-17.46,19.06-20.21.71-.21,1.42-.38,2.15-.53,1.78-.37,3.62-.56,5.51-.56h38.4c.13,0,.27,0,.4,0,.37,0,.75,0,1.12.03.09.01.19.01.29.02.8.05,1.59.13,2.37.25.91.13,1.81.31,2.68.54.37.09.74.19,1.1.3.5.15.99.31,1.48.49.39.14.79.29,1.18.46.43.18.85.37,1.27.57,2.83,1.34,5.4,3.16,7.61,5.33.42.42.83.85,1.21,1.3,4.27,4.85,6.79,11.14,6.79,18.1,0,7.8-3.31,13.93-8.55,19Z"/><path class="cls-2" d="M135.56,92.4c-.42-.43-.86-.86-1.31-1.3-2.19-2.19-4.72-3.99-7.51-5.33-.42-.2-.84-.39-1.27-.57-.39-.17-.79-.32-1.18-.46-.49-.18-.98-.34-1.48-.49-.36-.11-.73-.21-1.1-.3-.87-.22-1.77-.4-2.68-.54-.78-.12-1.57-.2-2.37-.25-.1,0-.2,0-.29-.02-.37-.02-.75-.03-1.12-.03-.13,0-.27,0-.4,0h-38.4c-1.89,0-3.73.19-5.51.56-.73.15-1.44.32-2.15.53-9.52,2.75-16.86,10.51-19.06,20.21-.25,1.08-.43,2.18-.54,3.3-.09.92-.14,1.86-.14,2.8,0,7.6,3,14.4,8,19.4,4.11,4.11,9.42,6.86,15.39,7.71.4.06.8.11,1.2.15.92.09,1.86.14,2.81.14h21.3v10.2c0,.34.05.66.15.95.44,1.47,1.92,2.33,3.41,2.1.42-.05.84-.2,1.24-.45l23.7-15.3c2.35-1.52,4.53-3.15,6.48-4.9.36-.33.72-.66,1.07-1,5.24-5.07,8.55-11.2,8.55-19,0-6.96-2.52-13.25-6.79-18.1ZM75.15,120.3c-5.1,0-9.2-4.1-9.2-9.2s4.1-9.2,9.2-9.2,9.2,4.1,9.2,9.2-4.1,9.2-9.2,9.2ZM116.53,120.29c-.13.01-.25.01-.38.01-.16,0-.32,0-.48-.01-4.87-.25-8.72-4.25-8.72-9.19s3.85-8.94,8.72-9.19c.16,0,.32,0,.48,0,.13,0,.25,0,.38,0,4.92.19,8.82,4.22,8.82,9.19s-3.9,9-8.82,9.19Z"/></svg>