<?xml version="1.0" encoding="UTF-8"?>
<svg xmlns="http://www.w3.org/2000/svg" viewBox="0 0 192.508254 192.508254">
  <defs>
    <style>
      .cls-1 {
        fill: none;
      }

      .cls-2 {
        fill: #fff;
      }
    </style>
  </defs>
  <g id="Export">
    <path class="cls-2" d="M96.264127,180.212889c-.300003,0-.589996-.070007-.870003-.199997l-1.75-.839996c-25.409996-12.210007-37.689999-19.199997-47.959999-30.869995-8.849998-10.050003-14.130001-24.489998-14.130001-38.619995V33.812887c0-1.040001.799999-1.91,1.84-1.99l3.720001-.290001c19.989998-1.59,38.849998-7.57,56.060005-17.75l2.059998-1.22c.629997-.37,1.410004-.37,2.040001,0l2.059998,1.22c16.959999,10.039999,36.349998,16.18,56.060005,17.75l3.720001.290001c1.039993.08,1.839996.949999,1.839996,1.99v75.879997c0,14.139999-5.279999,28.580002-14.130005,38.619995-10.259995,11.660004-22.540001,18.649994-47.949997,30.869995l-1.75.839996c-.269997.130005-.57.199997-.870003.199997l.010002-.009979ZM35.564127,35.662886v74.029999c0,13.190002,4.91,26.639999,13.130001,35.979996,9.799999,11.139999,21.790001,17.940002,46.689995,29.910004l.879997.429993.879997-.429993c24.900002-11.970001,36.880005-18.770004,46.690002-29.910004,8.229996-9.330002,13.139999-22.779999,13.139999-35.979996V35.662886l-1.869995-.150002c-20.320007-1.619999-40.300003-7.940001-57.790001-18.299999l-1.040001-.620001-1.040001.620001c-17.739998,10.5-37.18,16.66-57.790001,18.299999,0,0-1.880001.150002-1.879993.150002Z"/>
    <g>
      <path class="cls-2" d="M114.393034,104.827848c-1.051758,0-1.933594-.821289-1.995117-1.884766-.348633-6.049805-3.771484-10.988281-8.932617-12.88916-1.036133-.381836-1.567383-1.531738-1.185547-2.568359.381836-1.036133,1.529297-1.567871,2.568359-1.185547,6.677734,2.459961,11.101562,8.748535,11.543945,16.412598.063477,1.102539-.779297,2.047852-1.881836,2.112305-.039062.001953-.078125.00293-.117188.00293Z"/>
      <path class="cls-2" d="M92.343717,124.385466c-.667969,0-1.321289-.333984-1.700195-.943359l-.459961-.738281c-5.806641-9.31543-13.033203-20.90918-4.119629-31.583496,3.169434-3.797852,7.479492-5.88623,12.142578-5.88623h.070312c1.104492.004883,1.996094.904297,1.991211,2.008789s-.900391,1.988281-2.008789,1.991211c-3.529297-.005859-6.682129,1.522949-9.124512,4.449707-7.058105,8.45166-1.210938,17.83252,4.443359,26.903809l.461914.741211c.583496.9375.296387,2.170898-.641602,2.754883-.329102.204102-.693848.301758-1.054688.301758Z"/>
      <path class="cls-2" d="M79.238737,116.260466c-.765625,0-1.496094-.442383-1.827637-1.186523-1.316895-2.955078-2.132812-5.716797-2.494141-8.443359-.496582-3.829102-.134766-7.818359,1.04541-11.540039.333496-1.052734,1.455566-1.636719,2.510742-1.301758,1.052734.333496,1.635742,1.45752,1.302246,2.510742-1.004883,3.169922-1.313477,6.5625-.892578,9.811523.30957,2.333984,1.023438,4.735352,2.181641,7.333984.449707,1.009766-.003906,2.191406-1.012695,2.641602-.26416.117188-.541016.173828-.812988.173828Z"/>
      <path class="cls-2" d="M118.260221,93.360075c-.681641,0-1.345703-.348633-1.719727-.976562-.817383-1.371094-1.780273-2.653809-2.862305-3.812012-3.87793-4.152344-9.24707-6.622559-14.730469-6.777832-7.345703-.212891-13.250977,3.001465-16.648926,9.041504-.541992.962402-1.762207,1.303223-2.723633.762695-.962891-.541504-1.304199-1.76123-.762695-2.723633,4.102539-7.291016,11.467285-11.325195,20.249512-11.078613,6.543945.185059,12.9375,3.117676,17.540039,8.04541,1.275391,1.366699,2.411133,2.878906,3.374023,4.494629.56543.94873.254883,2.17627-.693359,2.741699-.321289.191406-.673828.282715-1.022461.282715Z"/>
      <path class="cls-2" d="M106.319791,124.752653c-.261719,0-.527344-.051758-.783203-.161133-8.282227-3.52832-14.385742-11.661133-15.549316-20.719727-.083008-.648438-.124512-1.242188-.125977-1.816406-.010254-3.271484,1.550293-6.271484,4.175293-8.024902,1.291992-.86377,2.807617-1.380371,4.380859-1.493652,1.767578-.125977,3.496094.236816,5.000977,1.050293,2.098633,1.133789,3.65332,3.065918,4.37793,5.439941l.088867.291992c1.520508,4.991211,2.719727,8.047852,6.542969,8.413086,1.509766.147461,3.077148-.448242,3.967773-1.512695,1.462891-1.748047,1.582031-4.711914.355469-8.811523-.316406-1.057617.28418-2.172363,1.342773-2.489258,1.058594-.3125,2.171875.283691,2.489258,1.342773,1.636719,5.467773,1.259766,9.681641-1.119141,12.524414-1.737305,2.078125-4.586914,3.196289-7.416016,2.928711-6.765625-.646484-8.628906-6.763672-9.989258-11.229492l-.088867-.290039c-.415039-1.361328-1.287109-2.458008-2.454102-3.088867-.834961-.452148-1.802734-.654297-2.811523-.580078-.895508.064453-1.71875.34375-2.445801.830078-1.507324,1.006836-2.403809,2.758789-2.397461,4.686523.000977.407227.031738.837891.09375,1.319336.986328,7.678711,6.147949,14.566406,13.149902,17.549805,1.015625.432617,1.488281,1.607422,1.055664,2.624023-.324219.759766-1.063477,1.216797-1.84082,1.216797Z"/>
      <path class="cls-2" d="M115.10983,119.291716c-.063477,0-.126953,0-.191406-.000977-9.289062-.119141-17.114258-7.751953-17.817383-17.375977-.080078-1.101562.748047-2.05957,1.849609-2.140625,1.102539-.068359,2.05957.748047,2.140625,1.849609.551758,7.571289,6.648438,13.574219,13.87793,13.666992.891602.012695,1.749023-.079102,2.602539-.266602,1.074219-.241211,2.145508.443359,2.382812,1.523438.237305,1.078125-.444336,2.145508-1.523438,2.382812-1.088867.240234-2.206055.361328-3.321289.361328Z"/>
    </g>
    <path class="cls-2" d="M146.151562,68.912537c-.379883-.46582-.949219-.736328-1.550781-.736328h-10.859375v-9.168945c0-1.104492-.895508-2-2-2h-48.848633l-5.897461-5.51709c-.370117-.34668-.858398-.539551-1.366211-.539551h-23.739258c-1.104492,0-2,.895508-2,2v79.637695c0,.003479.000977.006653.000977.010132.000122.023621.005554.046387.006531.069946.0047.117004.017456.23175.041565.343079.008789.040588.022888.079163.034241.119141.026672.094177.057922.185608.097534.273682.018555.041321.03894.080994.060364.121094.046387.086914.098938.168823.157227.24762.016357.022156.026611.047668.043945.069214.009033.01123.020996.018982.030212.029968.079285.09436.166443.181396.261902.259766.010925.008972.019958.020203.031128.028992.107178.084229.224243.155762.3479.217041.034485.017029.070923.028259.106262.043335.089539.038086.180847.071594.276733.096558.049805.013062.099915.021545.150818.030701.046387.008301.090332.022888.137817.028015.071045.00769.142029.011414.213074.011536.00061,0,.00116.000183.00177.000183h79.851562c.949219,0,1.767578-.666992,1.958984-1.59668l12.859375-62.411621c.121094-.588867-.029297-1.201172-.408203-1.66748ZM74.839062,54.950623l5.897461,5.51709c.370117.34668.858398.539551,1.366211.539551h47.638672v7.168457l-64.206055.000488c-.94043,0-1.75293.654785-1.954102,1.572754l-9.691406,44.327087v-59.125427h20.949219ZM130.111523,130.588318H54.374524l12.771179-58.412109h75.000977l-12.035156,58.412109Z"/>
  </g>
  <g id="Container">
    <rect class="cls-1" width="192" height="192"/>
  </g>
</svg>