<?xml version="1.0" encoding="UTF-8"?><svg id="Security_Networking" xmlns="http://www.w3.org/2000/svg" viewBox="0 0 192 192"><defs><style>.cls-1{fill:#d8291c;}.cls-2{fill:none;stroke:#464646;stroke-miterlimit:10;stroke-width:4px;}.cls-3{fill:#464646;}</style></defs><g id="Artwork_912"><g id="Artwork_912-2"><path class="cls-1" d="M115.35,137.01v7.01h-10.91v-7.01h10.91ZM90.55,154.02h0s10.91,0,10.91,0h0v-7.01h-10.91v7.01ZM115.35,132.88c0-3.24-2.63-5.87-5.87-5.87h-5.03v7.01h10.9v-1.14ZM90.55,127.01v7.01h10.91v-7.01h0s-10.91,0-10.91,0h0ZM76.65,137.01h0v7.01h10.91v-7.01h-10.91ZM104.44,154.02h5.03c3.24,0,5.87-2.63,5.87-5.87v-1.13h-10.9v7.01ZM76.65,148.15c0,3.24,2.63,5.87,5.87,5.87h5.03s0-7.01,0-7.01h-10.91v1.13ZM76.65,132.88v1.14h10.91v-7.01h-5.03c-3.24,0-5.87,2.63-5.87,5.87Z"/></g></g><circle class="cls-2" cx="96" cy="96.14" r="81.94"/><path class="cls-3" d="M48.06,96c-.05-6.95,4.59-12.86,10.63-13.96v-.32c-5.26-1.34-8.64-6.39-8.59-12.24-.05-8.37,6.98-14.6,16.64-14.6s16.59,6.23,16.64,14.6c-.05,5.85-3.44,10.9-8.59,12.24v.32c5.93,1.1,10.57,7.01,10.63,13.96-.05,8.94-7.7,15.35-18.68,15.35s-18.73-6.41-18.68-15.35ZM78.87,95.68c-.05-6.2-5.18-10.63-12.13-10.63s-12.19,4.43-12.13,10.63c-.05,5.9,4.59,9.77,12.13,9.77s12.08-3.86,12.13-9.77ZM76.94,69.91c-.05-5.58-4.13-9.23-10.2-9.23s-10.25,3.65-10.2,9.23c-.05,5.69,4.19,9.45,10.2,9.45s10.15-3.76,10.2-9.45Z"/><path class="cls-3" d="M90.9,106.2c0-2.66,2.17-4.83,4.83-4.83s4.83,2.17,4.83,4.83-2.17,4.83-4.83,4.83-4.83-2.17-4.83-4.83Z"/><path class="cls-3" d="M105.72,83.12c0-17.82,7.09-28.24,19.11-28.24s19.11,10.41,19.11,28.24-6.98,28.24-19.11,28.24-19.11-10.28-19.11-28.24ZM137.5,83.12c0-14.28-4.72-22.44-12.67-22.44s-12.67,8.16-12.67,22.44,4.67,22.33,12.67,22.33,12.67-8.02,12.67-22.33Z"/></svg>