<?xml version="1.0" encoding="UTF-8"?>
<svg id="Security_Networking" data-name="Security Networking" xmlns="http://www.w3.org/2000/svg" viewBox="0 0 192 192">
  <defs>
    <style>
      .cls-1 {
        fill: #464646;
      }

      .cls-1, .cls-2, .cls-3 {
        stroke-width: 0px;
      }

      .cls-2 {
        fill: #3cb17e;
      }

      .cls-3 {
        fill: #fff;
      }
    </style>
  </defs>
  <g>
    <path class="cls-2" d="m96,177.72l-1.75-.84c-25.15-12.09-37.28-18.97-47.33-30.39-8.54-9.7-13.63-23.65-13.63-37.3V33.31l3.72-.29c20.31-1.62,39.46-7.69,56.92-18.02l2.06-1.22,2.06,1.22c17.21,10.19,36.89,16.43,56.92,18.02l3.72.29v75.88c0,13.65-5.1,27.61-13.63,37.3-10.05,11.42-22.18,18.3-47.32,30.39l-1.75.84Z"/>
    <path class="cls-1" d="m96,179.72c-.3,0-.59-.07-.87-.2l-1.75-.84c-25.41-12.21-37.69-19.2-47.96-30.87-8.85-10.05-14.13-24.49-14.13-38.62V33.31c0-1.04.8-1.91,1.84-1.99l3.72-.29c19.99-1.59,38.85-7.57,56.06-17.75l2.06-1.22c.63-.37,1.41-.37,2.04,0l2.06,1.22c16.96,10.04,36.35,16.18,56.06,17.75l3.72.29c1.04.08,1.84.95,1.84,1.99v75.88c0,14.14-5.28,28.58-14.13,38.62-10.26,11.66-22.54,18.65-47.95,30.87l-1.75.84c-.27.13-.57.2-.87.2ZM35.3,35.16v74.03c0,13.19,4.91,26.64,13.13,35.98,9.8,11.14,21.79,17.94,46.69,29.91l.88.43.88-.43c24.9-11.97,36.88-18.77,46.69-29.91,8.23-9.33,13.14-22.78,13.14-35.98V35.16l-1.87-.15c-20.32-1.62-40.3-7.94-57.79-18.3l-1.04-.62-1.04.62c-17.74,10.5-37.18,16.66-57.79,18.3l-1.88.15Z"/>
  </g>
  <g>
    <path class="cls-3" d="m84.2,83.9h0c-1.45,0-2.63-1.18-2.63-2.63v-23.74c0-1.45,1.18-2.63,2.63-2.63h0c1.45,0,2.63,1.18,2.63,2.63v23.74c0,1.45-1.18,2.63-2.63,2.63Z"/>
    <path class="cls-3" d="m95.16,54.91h0c1.45,0,2.63,1.18,2.63,2.63v21.96h10.57c1.22,0,2.2.99,2.2,2.2h0c0,1.22-.99,2.2-2.2,2.2h-13.62c-1.22,0-2.2-.99-2.2-2.2v-24.16c0-1.45,1.18-2.63,2.63-2.63Z"/>
    <path class="cls-3" d="m58.37,92.75c1.56,0,2.97.94,3.56,2.39l7.63,18.62h.34l7.63-18.62c.59-1.44,2-2.39,3.56-2.39h0c2.12,0,3.85,1.72,3.85,3.85v22.62c0,1.39-1.13,2.52-2.52,2.52h0c-1.39,0-2.52-1.13-2.52-2.52v-17.4h-.27l-7.37,18.25c-.38.95-1.31,1.58-2.34,1.58h-.36c-1.03,0-1.95-.62-2.34-1.58l-7.38-18.29h-.27v17.44c0,1.39-1.13,2.52-2.52,2.52h0c-1.39,0-2.52-1.13-2.52-2.52v-22.62c0-2.12,1.72-3.85,3.85-3.85h0Z"/>
    <path class="cls-3" d="m90.63,95.38c0-1.45,1.18-2.63,2.63-2.63h8.24c6.67,0,10.22,4.06,10.22,9.6s-3.6,9.6-10.29,9.6h-5.55v7.17c0,1.45-1.18,2.63-2.63,2.63h0c-1.45,0-2.63-1.18-2.63-2.63v-23.74Zm10.09,12.25c3.91,0,5.65-2.19,5.65-5.28s-1.74-5.21-5.68-5.21h-4.81v10.49h4.84Z"/>
    <path class="cls-3" d="m126.56,97.19c-3.28,0-5.24,1.6-5.25,3.78-.03,2.42,2.55,3.43,4.93,3.99l2.72.68c4.36,1.03,8.51,3.33,8.52,8.35-.01,5.11-4.05,8.58-11,8.58-5.24,0-8.99-1.95-10.51-5.52-.7-1.65.51-3.48,2.3-3.48h.29c.98,0,1.81.64,2.19,1.55.84,2,3.02,2.97,5.69,2.97,3.43,0,5.77-1.66,5.79-4.13-.01-2.25-2.08-3.23-5.21-4.02l-3.3-.85c-4.77-1.23-7.73-3.62-7.73-7.78-.01-5.12,4.56-8.55,10.64-8.55,4.65,0,8.16,1.97,9.66,5.03.75,1.54-.46,3.34-2.18,3.34h-.33c-.95,0-1.75-.59-2.18-1.44-.79-1.58-2.59-2.48-5.05-2.48Z"/>
  </g>
</svg>