<?xml version="1.0" encoding="utf-8"?>
<!-- Generator: Adobe Illustrator 27.9.0, SVG Export Plug-In . SVG Version: 6.00 Build 0)  -->
<svg version="1.1" id="Security_Networking" xmlns="http://www.w3.org/2000/svg" xmlns:xlink="http://www.w3.org/1999/xlink"
	 x="0px" y="0px" viewBox="0 0 192 192" style="enable-background:new 0 0 192 192;" xml:space="preserve">
<style type="text/css">
	.st0{fill:#FFFFFF;}
</style>
<g>
	<path class="st0" d="M96,179.7c-0.3,0-0.6-0.1-0.9-0.2l-1.8-0.8c-25.4-12.2-37.7-19.2-48-30.9c-8.8-10.1-14.1-24.5-14.1-38.6V33.3
		c0-1,0.8-1.9,1.8-2l3.7-0.3c20-1.6,38.8-7.6,56.1-17.8l2.1-1.2c0.6-0.4,1.4-0.4,2,0l2.1,1.2c17,10,36.3,16.2,56.1,17.8l3.7,0.3
		c1,0.1,1.8,0.9,1.8,2v75.9c0,14.1-5.3,28.6-14.1,38.6c-10.3,11.7-22.5,18.6-47.9,30.9l-1.8,0.8C96.6,179.6,96.3,179.7,96,179.7
		L96,179.7z M35.3,35.2v74c0,13.2,4.9,26.6,13.1,36c9.8,11.1,21.8,17.9,46.7,29.9l0.9,0.4l0.9-0.4c24.9-12,36.9-18.8,46.7-29.9
		c8.2-9.3,13.1-22.8,13.1-36v-74l-1.9-0.2c-20.3-1.6-40.3-7.9-57.8-18.3l-1-0.6l-1,0.6C77.2,27.2,57.8,33.4,37.2,35
		C37.2,35,35.3,35.2,35.3,35.2z"/>
</g>
<g>
	<path class="st0" d="M84.2,83.9L84.2,83.9c-1.4,0-2.6-1.2-2.6-2.6V57.5c0-1.5,1.2-2.6,2.6-2.6l0,0c1.4,0,2.6,1.2,2.6,2.6v23.7
		C86.8,82.7,85.6,83.9,84.2,83.9z"/>
	<path class="st0" d="M95.2,54.9L95.2,54.9c1.4,0,2.6,1.2,2.6,2.6v22h10.6c1.2,0,2.2,1,2.2,2.2l0,0c0,1.2-1,2.2-2.2,2.2H94.7
		c-1.2,0-2.2-1-2.2-2.2V57.5C92.5,56.1,93.7,54.9,95.2,54.9L95.2,54.9z"/>
	<path class="st0" d="M58.4,92.8c1.6,0,3,0.9,3.6,2.4l7.6,18.6h0.3l7.6-18.6c0.6-1.4,2-2.4,3.6-2.4l0,0c2.1,0,3.8,1.7,3.8,3.8v22.6
		c0,1.4-1.1,2.5-2.5,2.5l0,0c-1.4,0-2.5-1.1-2.5-2.5v-17.4h-0.3l-7.4,18.2c-0.4,0.9-1.3,1.6-2.3,1.6h-0.4c-1,0-1.9-0.6-2.3-1.6
		l-7.4-18.3h-0.3v17.4c0,1.4-1.1,2.5-2.5,2.5l0,0c-1.4,0-2.5-1.1-2.5-2.5V96.6C54.5,94.5,56.2,92.8,58.4,92.8L58.4,92.8L58.4,92.8z"
		/>
	<path class="st0" d="M90.6,95.4c0-1.4,1.2-2.6,2.6-2.6h8.2c6.7,0,10.2,4.1,10.2,9.6s-3.6,9.6-10.3,9.6h-5.6v7.2
		c0,1.4-1.2,2.6-2.6,2.6l0,0c-1.4,0-2.6-1.2-2.6-2.6L90.6,95.4L90.6,95.4z M100.7,107.6c3.9,0,5.7-2.2,5.7-5.3s-1.7-5.2-5.7-5.2
		h-4.8v10.5H100.7z"/>
	<path class="st0" d="M126.6,97.2c-3.3,0-5.2,1.6-5.2,3.8c0,2.4,2.6,3.4,4.9,4l2.7,0.7c4.4,1,8.5,3.3,8.5,8.3c0,5.1-4.1,8.6-11,8.6
		c-5.2,0-9-1.9-10.5-5.5c-0.7-1.7,0.5-3.5,2.3-3.5h0.3c1,0,1.8,0.6,2.2,1.6c0.8,2,3,3,5.7,3c3.4,0,5.8-1.7,5.8-4.1
		c0-2.2-2.1-3.2-5.2-4l-3.3-0.8c-4.8-1.2-7.7-3.6-7.7-7.8c0-5.1,4.6-8.6,10.6-8.6c4.6,0,8.2,2,9.7,5c0.8,1.5-0.5,3.3-2.2,3.3h-0.3
		c-0.9,0-1.8-0.6-2.2-1.4C130.8,98.1,129,97.2,126.6,97.2L126.6,97.2z"/>
</g>
</svg>
