<?xml version="1.0" encoding="utf-8"?>
<!-- Generator: Adobe Illustrator 27.7.0, SVG Export Plug-In . SVG Version: 6.00 Build 0)  -->
<svg version="1.1" id="Security_Networking" xmlns="http://www.w3.org/2000/svg" xmlns:xlink="http://www.w3.org/1999/xlink"
	 x="0px" y="0px" viewBox="0 0 192 192" style="enable-background:new 0 0 192 192;" xml:space="preserve">
<style type="text/css">
	.st0{fill:#FFFFFF;}
</style>
<path class="st0" d="M132.2,180.1H59.8c-6.3,0-11.5-5.1-11.5-11.5V23.5c0-6.3,5.2-11.5,11.5-11.5h72.3c6.3,0,11.5,5.1,11.5,11.5
	v145.1C143.7,174.9,138.5,180.1,132.2,180.1L132.2,180.1z M59.8,16c-4.1,0-7.5,3.4-7.5,7.5v145.1c0,4.1,3.4,7.5,7.5,7.5h72.3
	c4.1,0,7.5-3.4,7.5-7.5V23.5c0-4.1-3.4-7.5-7.5-7.5L59.8,16L59.8,16z"/>
<path class="st0" d="M102.7,28.5H79.5c-1.1,0-2-0.9-2-2s0.9-2,2-2h23.2c1.1,0,2,0.9,2,2S103.8,28.5,102.7,28.5z"/>
<path class="st0" d="M112.5,28.5c-0.5,0-1-0.2-1.4-0.6c-0.1-0.1-0.2-0.2-0.2-0.3c-0.1-0.1-0.1-0.2-0.2-0.4c-0.1-0.1-0.1-0.2-0.1-0.4
	c0-0.1,0-0.3,0-0.4s0-0.3,0-0.4s0.1-0.2,0.1-0.4s0.1-0.2,0.2-0.4s0.2-0.2,0.2-0.3c0.7-0.7,2.1-0.7,2.8,0c0.4,0.4,0.6,0.9,0.6,1.4
	s-0.2,1-0.6,1.4C113.5,28.3,113,28.5,112.5,28.5L112.5,28.5z"/>
<path class="st0" d="M65.8,86.3c-1.1,0-2-0.9-2-2V65.9c0-1.1,0.9-2,2-2h18.6c1.1,0,2,0.9,2,2s-0.9,2-2,2H67.8v16.4
	C67.8,85.4,66.9,86.3,65.8,86.3z"/>
<path class="st0" d="M84.4,128.2H65.8c-1.1,0-2-0.9-2-2v-18.8c0-1.1,0.9-2,2-2s2,0.9,2,2v16.8h16.6c1.1,0,2,0.9,2,2
	S85.5,128.2,84.4,128.2z"/>
<path class="st0" d="M126.2,128.2h-18.6c-1.1,0-2-0.9-2-2s0.9-2,2-2h16.6v-16.8c0-1.1,0.9-2,2-2s2,0.9,2,2v18.8
	C128.2,127.3,127.3,128.2,126.2,128.2z"/>
<path class="st0" d="M126.2,86.3c-1.1,0-2-0.9-2-2V67.9h-16.5c-1.1,0-2-0.9-2-2s0.9-2,2-2h18.5c1.1,0,2,0.9,2,2v18.4
	C128.2,85.4,127.3,86.3,126.2,86.3z"/>
<path class="st0" d="M89.9,92.4H78c-1.1,0-2-0.9-2-2V78.4c0-1.1,0.9-2,2-2h11.9c1.1,0,2,0.9,2,2v11.9C91.9,91.5,91,92.4,89.9,92.4z
	 M80,88.4h7.9v-7.9H80V88.4z"/>
<path class="st0" d="M114,92.4h-11.9c-1.1,0-2-0.9-2-2V78.4c0-1.1,0.9-2,2-2H114c1.1,0,2,0.9,2,2v11.9C116,91.5,115.1,92.4,114,92.4
	z M104.1,88.4h7.9v-7.9h-7.9V88.4z"/>
<path class="st0" d="M89.9,115.6H78c-1.1,0-2-0.9-2-2v-11.9c0-1.1,0.9-2,2-2h11.9c1.1,0,2,0.9,2,2v11.9
	C91.9,114.7,91,115.6,89.9,115.6z M80,111.6h7.9v-7.9H80V111.6z"/>
<path class="st0" d="M100.3,99.2h4.3c0.5,0,0.8,0.4,0.8,0.8v4.3c0,0.5-0.4,0.8-0.8,0.8h-4.3c-0.5,0-0.8-0.4-0.8-0.8v-4.3
	C99.4,99.6,99.8,99.2,100.3,99.2z"/>
<path class="st0" d="M100.3,110.1h4.3c0.5,0,0.8,0.4,0.8,0.8v4.3c0,0.5-0.4,0.8-0.8,0.8h-4.3c-0.5,0-0.8-0.4-0.8-0.8v-4.3
	C99.4,110.4,99.8,110.1,100.3,110.1z"/>
<path class="st0" d="M111.5,110.1h4.3c0.5,0,0.8,0.4,0.8,0.8v4.3c0,0.5-0.4,0.8-0.8,0.8h-4.3c-0.5,0-0.8-0.4-0.8-0.8v-4.3
	C110.7,110.4,111,110.1,111.5,110.1z"/>
<path class="st0" d="M111.5,99.2h4.3c0.5,0,0.8,0.4,0.8,0.8v4.3c0,0.5-0.4,0.8-0.8,0.8h-4.3c-0.5,0-0.8-0.4-0.8-0.8v-4.3
	C110.7,99.6,111,99.2,111.5,99.2z"/>
<path class="st0" d="M105.9,104.7h4.3c0.5,0,0.8,0.4,0.8,0.8v4.3c0,0.5-0.4,0.8-0.8,0.8h-4.3c-0.5,0-0.8-0.4-0.8-0.8v-4.3
	C105.1,105,105.4,104.7,105.9,104.7z"/>
</svg>
